<svg width="48" height="66" viewBox="0 0 48 66" fill="none" xmlns="http://www.w3.org/2000/svg">
<path d="M23.9025 0C10.7226 0 0 10.7226 0 23.9024C0 40.2589 21.3904 64.2712 22.3011 65.2855C23.1565 66.2382 24.65 66.2365 25.5039 65.2855C26.4146 64.2712 47.805 40.2589 47.805 23.9024C47.8048 10.7226 37.0823 0 23.9025 0ZM23.9025 35.9283C17.2714 35.9283 11.8767 30.5335 11.8767 23.9024C11.8767 17.2712 17.2715 11.8766 23.9025 11.8766C30.5335 11.8766 35.9282 17.2714 35.9282 23.9025C35.9282 30.5336 30.5335 35.9283 23.9025 35.9283Z" fill="url(#paint0_linear)"/>
<defs>
<linearGradient id="paint0_linear" x1="-3.56175e-07" y1="32.9997" x2="47.805" y2="32.9997" gradientUnits="userSpaceOnUse">
<stop stop-color="#2871D7"/>
<stop offset="1" stop-color="#3269B6"/>
</linearGradient>
</defs>
</svg>
