<svg viewBox="0 0 119 89" fill="none" xmlns="http://www.w3.org/2000/svg"><path d="M108.973 13.8472H84.2588V9.45074C84.2588 4.60149 79.8252 0.657959 74.3728 0.657959H44.7153C39.2632 0.657959 34.8294 4.60128 34.8294 9.45074V13.847H10.1149C4.66257 13.8472 0.229004 17.7906 0.229004 22.6398V79.7924C0.229004 84.6416 4.66257 88.5852 10.1149 88.5852H108.973C114.426 88.5852 118.859 84.6418 118.859 79.7924V22.6398C118.859 17.7906 114.426 13.8472 108.973 13.8472ZM39.7725 9.45074C39.7725 7.02725 41.9905 5.05445 44.7153 5.05445H74.3728C77.0976 5.05445 79.3157 7.02725 79.3157 9.45074V13.847H39.7725V9.45074ZM113.916 79.7926C113.916 82.2161 111.698 84.1889 108.973 84.1889H10.1149C7.39014 84.1889 5.17208 82.2161 5.17208 79.7926V47.7953C6.63202 48.5524 8.30628 49.0182 10.1149 49.0182H49.6584V55.6127C49.6584 56.8277 50.7638 57.8109 52.1299 57.8109H66.9587C68.3248 57.8109 69.4302 56.8277 69.4302 55.6127V49.0182H108.974C110.782 49.0182 112.457 48.5526 113.917 47.7953V79.7926H113.916ZM54.6012 53.4144V44.6217H64.4872V53.4144H54.6012ZM113.916 40.2254C113.916 42.6489 111.698 44.6217 108.973 44.6217H69.43V42.4234C69.43 41.2084 68.3246 40.2252 66.9585 40.2252H52.1297C50.7636 40.2252 49.6582 41.2084 49.6582 42.4234V44.6217H10.1149C7.39014 44.6217 5.17208 42.6489 5.17208 40.2254V22.64C5.17208 20.2165 7.39014 18.2437 10.1149 18.2437H108.973C111.698 18.2437 113.916 20.2165 113.916 22.64V40.2254Z" /></svg>
