<svg viewBox="0 0 101 84" fill="none" xmlns="http://www.w3.org/2000/svg"><path d="M98.9175 70.8458C98.1116 70.8458 97.4586 71.4268 97.4586 72.1434V80.8137C97.4586 80.9341 97.3485 81.0322 97.2129 81.0322H91.6694V62.0738C91.6694 61.3571 91.0164 60.7762 90.2105 60.7762C89.4046 60.7762 88.7516 61.3571 88.7516 62.0738V81.0323H78.0392L80.9385 78.1954C81.3863 77.7572 81.5974 77.1348 81.5034 76.5305C81.5013 76.5175 81.4991 76.5047 81.4966 76.4917L78.2374 59.364L78.8371 58.5611L78.9933 58.6597C79.528 58.9976 80.21 59.1208 80.8699 58.9742C81.5178 58.8301 82.0607 58.4424 82.3591 57.9109V57.9107L85.6756 51.9986L93.2513 54.6082C93.5503 54.7238 97.4578 56.3174 97.4578 60.4639V66.0875C97.458 66.8043 98.1111 67.3853 98.917 67.3853C99.7229 67.3853 100.376 66.8043 100.376 66.0877V60.464C100.376 54.476 94.6015 52.2959 94.3558 52.2059C94.3464 52.2024 94.3373 52.1991 94.328 52.196L81.4277 47.7523V45.3889C83.4415 43.9481 84.8556 41.8714 85.2803 39.504C86.2846 39.3919 87.2164 39.0343 87.9896 38.4428C89.0984 37.5946 89.7347 36.3605 89.7347 35.0572C89.7347 34.0169 89.3287 33.0214 88.6018 32.2307V28.7292C88.6018 21.8768 82.3338 16.3021 74.6299 16.3021C71.1711 16.3021 68.0043 17.4281 65.5616 19.2866C65.5301 18.2923 65.13 17.3449 64.4326 16.5864V13.0851C64.4326 6.23266 58.1647 0.657959 50.4608 0.657959C42.7565 0.657959 36.4888 6.23283 36.4888 13.0851V16.6777C35.7875 17.4231 35.3951 18.3217 35.3605 19.2755C33.802 18.0909 31.9367 17.199 29.8578 16.7121C29.0774 16.5294 28.2804 16.9435 28.0752 17.6366C27.87 18.3297 28.3353 19.0395 29.1146 19.2221C33.9607 20.357 37.3454 24.2666 37.3454 28.729V30.6697C37.2824 30.6581 37.0801 30.6272 37.0723 30.6261C37.0525 30.2599 36.9482 30.0362 36.7237 29.749C36.3502 29.2716 35.6795 28.677 33.5223 26.6146C32.7535 25.8802 31.5101 25.7454 30.5663 26.2942C26.8713 28.441 22.3823 29.5351 18.2164 29.3176C16.8594 29.2469 16.0118 29.7772 15.6506 30.6462C15.6183 30.6509 15.2575 30.7156 15.2375 30.7199V28.729C15.2375 24.4263 18.47 20.5555 23.0983 19.3155C23.8698 19.1089 24.3069 18.385 24.0747 17.6987C23.8422 17.0123 23.0271 16.6236 22.2566 16.8305C19.4419 17.5845 16.9117 19.1544 15.1328 21.2507C13.292 23.4192 12.3192 26.0053 12.3192 28.7292V32.322C11.5843 33.103 11.1869 34.0522 11.1869 35.0572C11.1869 37.2787 13.0271 39.2161 15.6489 39.5051C16.0784 41.8171 17.4887 44.0342 19.7144 45.5417V47.753L6.82859 52.1964C6.81945 52.1995 6.81031 52.2028 6.80116 52.2061C6.5549 52.2959 0.780273 54.4758 0.780273 60.4639V80.8137C0.780273 82.3654 2.19952 83.6276 3.9442 83.6276H48.8735C49.5014 83.6276 50.0856 83.462 50.5785 83.1803C51.071 83.462 51.6554 83.6276 52.2835 83.6276H97.2129C98.9574 83.6276 100.377 82.3654 100.377 80.8137V72.1434C100.376 71.4268 99.7235 70.8458 98.9175 70.8458ZM15.5061 36.8239C14.6508 36.5477 14.1044 35.8441 14.1044 35.0569C14.1044 34.2934 14.7268 33.666 15.5061 33.3682V36.8239ZM82.9429 51.0572L80.0791 56.1622C80.0787 56.1619 76.8981 54.1526 76.853 54.1241C78.2251 52.6175 77.5805 53.3253 80.4337 50.193L82.9429 51.0572ZM74.7439 52.3164L70.9708 48.174V46.9291C72.1972 47.3063 73.5184 47.4803 74.762 47.4807C74.7622 47.4807 74.7626 47.4807 74.7628 47.4807H74.763C76.0488 47.4805 77.3505 47.2634 78.5099 46.8753V48.1819L74.7439 52.3164ZM76.4569 57.0576L75.9202 57.7761H73.5682L73.0315 57.0576L74.7443 55.9757L76.4569 57.0576ZM50.5746 36.6721L46.8014 32.5296V31.2848C48.023 31.6604 49.3429 31.836 50.5927 31.8364C50.5929 31.8364 50.5933 31.8364 50.5935 31.8364H50.5936C51.8771 31.8364 53.1787 31.6199 54.3406 31.2312V32.5376L50.5746 36.6721ZM52.2874 41.4136L51.7507 42.1321H49.3987L48.862 41.4136L50.5748 40.3317L52.2874 41.4136ZM39.0854 23.7364C39.3239 23.7941 39.569 23.8334 39.8178 23.8608C40.2473 26.1727 41.6576 28.3899 43.8834 29.8974V32.1087L40.907 33.1348C40.7344 32.8125 40.5187 32.5089 40.2627 32.2305V28.7292C40.2627 26.9683 39.8456 25.2755 39.0854 23.7364ZM58.3273 22.3623C58.3273 26.1605 54.8438 29.2406 50.5936 29.2406C45.7985 29.2406 42.5939 25.9352 42.5939 22.3623V16.2839C47.2008 16.4479 51.9866 15.2336 55.8995 13.0674C57.215 14.3221 57.9978 15.051 58.3275 15.3894C58.3273 18.6201 58.3273 19.8676 58.3273 22.3623ZM61.1111 23.8599C61.3586 23.8322 61.6025 23.7928 61.8396 23.7351C61.0818 25.2646 60.6577 26.9532 60.6577 28.7292V32.3219C60.4334 32.5601 60.2405 32.8139 60.0807 33.0802L57.2586 32.1082V29.7448C59.2721 28.3038 60.6865 26.2271 61.1111 23.8599ZM44.8797 34.5508L48.4613 38.4827L46.0188 40.0257C46.0175 40.0265 46.0165 40.0274 46.0151 40.0283L45.24 40.5181L42.376 35.4133L44.8797 34.5508ZM53.9324 37.1086L56.2642 34.5487L58.7734 35.4129L55.9098 40.5181L55.1329 40.0274C55.1321 40.0269 55.1313 40.0262 55.1305 40.0257L52.6836 38.4798L53.9324 37.1086ZM54.6677 42.9169L54.8239 43.0155C55.3694 43.3602 56.0539 43.474 56.7005 43.3301C57.3485 43.186 57.8914 42.7982 58.1898 42.2667V42.2666L60.6521 37.8773C61.498 38.8047 62.7216 39.3687 63.9817 39.5087C64.4268 41.9897 65.9345 44.1071 68.0529 45.5417V47.7528L55.6493 52.0299L54.0678 43.72L54.6677 42.9169ZM69.0491 50.1949L72.6306 54.1269C71.0647 55.1163 69.4904 56.111 69.4093 56.1622L66.5453 51.0574L69.0491 50.1949ZM82.4965 38.0066C82.4969 41.712 79.1135 44.885 74.763 44.885C69.8042 44.885 66.7632 41.4305 66.7632 38.0066V31.9282C71.3372 32.0907 76.1293 30.8924 80.0686 28.7117C81.3842 29.9664 82.1669 30.6953 82.4967 31.0338C82.4965 34.2643 82.4965 35.5119 82.4965 38.0066ZM86.8168 35.057C86.8168 35.8456 86.2687 36.5479 85.4151 36.8239V33.2938C86.2975 33.5797 86.8168 34.2968 86.8168 35.057ZM63.5757 28.729C63.5757 23.3078 68.5347 18.8973 74.6297 18.8973C80.7249 18.8973 85.6835 23.308 85.6835 28.729V30.6697C85.6172 30.6575 85.4347 30.6294 85.4104 30.6261C85.3906 30.2595 85.2857 30.0353 85.0618 29.749C84.6784 29.2591 84.0151 28.6747 81.8604 26.6146C81.108 25.8963 79.8673 25.7345 78.9044 26.2942C75.3096 28.3828 70.7679 29.5626 66.4461 29.313C65.2321 29.2422 64.3527 29.7709 63.9887 30.6464C63.9562 30.6511 63.596 30.7158 63.5756 30.7201V28.729H63.5757ZM63.8452 33.3684V36.8221C62.9873 36.547 62.4434 35.8415 62.4434 35.0569C62.4432 34.2934 63.0653 33.6663 63.8452 33.3684ZM62.6471 19.4129C62.6471 19.9593 62.3812 20.4761 61.9176 20.8306C61.7186 20.9828 61.4918 21.0998 61.2454 21.1795V17.6495C62.1178 17.9312 62.6471 18.6445 62.6471 19.4129ZM50.4602 3.25318C56.5554 3.25318 61.5142 7.66366 61.5142 13.0849V15.0256C61.4482 15.0135 61.2654 14.9853 61.2411 14.982C61.2195 14.5846 61.0907 14.3403 60.8279 14.0242C60.4373 13.5539 59.7172 12.9074 57.691 10.9703C56.926 10.2397 55.6833 10.0987 54.735 10.6499C50.9387 12.8558 46.3334 13.9294 42.1591 13.6635C41.1379 13.5948 40.1763 14.1436 39.8196 15.0019C39.7871 15.0066 39.4266 15.0713 39.4064 15.0756V13.0851H39.4062C39.4062 7.66366 44.3652 3.25318 50.4602 3.25318ZM39.6754 17.7241V21.1797C38.8201 20.9036 38.2737 20.1999 38.2737 19.4127C38.2737 18.6535 38.8913 18.0239 39.6754 17.7241ZM37.0758 33.2938C37.892 33.558 38.4163 34.1914 38.4682 34.9442C38.5336 35.7813 37.9553 36.5382 37.0758 36.8223V33.2938ZM36.9406 39.5084C38.3167 39.3552 39.5797 38.7102 40.408 37.718L42.9598 42.2666C42.9598 42.2666 42.9598 42.2666 42.96 42.2667C43.2582 42.7984 43.8011 43.186 44.449 43.3301C45.0896 43.4725 45.7749 43.3635 46.3256 43.0155L46.4818 42.9169L47.0815 43.7199L45.5006 52.0275L33.0893 47.7521V45.3898H33.0891C35.1555 43.9079 36.5259 41.8141 36.9406 39.5084ZM26.4048 52.3164L22.6317 48.174V46.9291C23.8533 47.3047 25.1733 47.4803 26.4231 47.4805C26.4233 47.4805 26.4237 47.4805 26.4239 47.4805C27.7284 47.4805 29.0278 47.2577 30.1708 46.8753V48.1819L26.4048 52.3164ZM28.1178 57.0576L27.5811 57.7761H25.2291L24.6925 57.0576L26.4052 55.9757L28.1178 57.0576ZM32.0945 50.193L34.6038 51.0574L31.74 56.1622L30.9631 55.6715C30.9623 55.671 30.9616 55.6703 30.9608 55.6698L28.5139 54.1241L32.0945 50.193ZM18.4241 38.0066V31.9282C23.0555 32.0928 27.8445 30.8623 31.7295 28.7117C33.0326 29.9547 33.8275 30.695 34.1576 31.0338C34.1576 34.2645 34.1576 35.5121 34.1576 38.0066C34.1576 41.7806 30.698 44.885 26.4239 44.885C21.6653 44.885 18.4241 41.6172 18.4241 38.0066ZM20.7102 50.1949L24.2917 54.1269L21.8493 55.6698C21.8479 55.6707 21.847 55.6715 21.8456 55.6724L21.0704 56.1622L18.2065 51.0574L20.7102 50.1949ZM12.4056 81.0325V62.0738C12.4056 61.3571 11.7526 60.7762 10.9467 60.7762C10.1407 60.7762 9.48773 61.3571 9.48773 62.0738V81.0323H3.9442C3.80842 81.0323 3.69832 80.9342 3.69832 80.8138V60.4639C3.69832 56.2961 7.64656 54.7075 7.90217 54.6092L15.4732 51.9986L18.79 57.9107C18.79 57.9107 18.79 57.9107 18.7902 57.9109C19.0884 58.4425 19.6313 58.8301 20.2795 58.9742C20.9201 59.1166 21.6054 59.0076 22.1561 58.6597L22.3123 58.5611L22.912 59.364L19.6527 76.4917C19.6502 76.5045 19.6481 76.5175 19.6459 76.5305C19.5522 77.1345 19.7632 77.7568 20.2112 78.1958L23.1102 81.0323H12.4056V81.0325ZM22.5811 76.6558L25.6797 60.3715H27.1306L30.2294 76.6558L26.4052 80.3976L22.5811 76.6558ZM49.1192 80.8137C49.1192 80.9342 49.0091 81.0323 48.8735 81.0323H43.3303V62.0738C43.3303 61.3571 42.6773 60.7762 41.8714 60.7762C41.0655 60.7762 40.4125 61.3571 40.4125 62.0738V81.0323H29.7001L32.5994 78.1954C33.0472 77.7572 33.2583 77.1348 33.1643 76.5305C33.1622 76.5175 33.1601 76.5047 33.1575 76.4917L29.8983 59.364L30.498 58.5611L30.6542 58.6597C31.0446 58.9064 31.5068 59.0351 31.9758 59.0351C32.8315 59.0351 33.6285 58.6086 34.0202 57.9109V57.9107L37.3367 51.9988L44.9124 54.6084C47.1206 55.4627 49.119 57.666 49.119 60.4639V80.8137H49.1192ZM50.5783 55.7485C49.9739 54.8824 49.1693 54.081 48.1994 53.3971L49.8492 44.7275H51.3002L52.9507 53.4016C51.9549 54.1049 51.1609 54.9136 50.5783 55.7485ZM60.7445 81.0325V62.0738C60.7445 61.3571 60.0914 60.7762 59.2855 60.7762C58.4796 60.7762 57.8266 61.3571 57.8266 62.0738V81.0323H52.2833C52.1477 81.0323 52.0374 80.9342 52.0374 80.8138V60.4639C52.0374 58.9213 52.5813 57.5005 53.7399 56.3068C54.5123 55.5188 55.5369 54.8807 56.2414 54.6092L63.8125 51.9984L67.1293 57.9107C67.1293 57.9107 67.1293 57.9107 67.1295 57.9109C67.4277 58.4425 67.9706 58.8301 68.6186 58.9742C69.2591 59.1166 69.9445 59.0076 70.4951 58.6597L70.6514 58.5611L71.2511 59.364L67.9918 76.4917C67.9893 76.5045 67.9872 76.5175 67.985 76.5305C67.8913 77.1345 68.1023 77.7568 68.5503 78.1958L71.4493 81.0323H60.7445V81.0325ZM70.92 76.6559L74.0187 60.3716H75.4697L78.5685 76.6559L74.7441 80.3977L70.92 76.6559Z"/></svg>
