<svg viewBox="0 0 89 80" fill="none" xmlns="http://www.w3.org/2000/svg"><path d="M84.2599 66.0129C75.4536 61.8594 68.6988 59.5303 62.6854 58.6374L63.3078 57.8764C63.6029 57.6139 63.7504 57.2202 63.6029 56.8265L62.2201 51.9071C65.8773 47.3087 68.0294 41.5599 68.0294 36.0914V30.842H69.5048H72.4558C73.3411 30.842 73.9312 30.3171 73.9312 29.5297C73.9312 28.7423 73.3411 28.2174 72.4558 28.2174H70.9804V26.9051C70.9804 16.5376 63.3078 7.74487 51.7988 4.85763V4.59496C51.7988 2.49512 49.8807 0.657959 47.3723 0.657959H41.4703C39.1094 0.657959 37.0438 2.36394 37.0438 4.59496V4.85748C25.5349 7.74471 17.8622 16.5374 17.8622 26.905V28.2173H16.3868C15.5015 28.2173 14.9114 28.7421 14.9114 29.5295C14.9114 30.3169 15.5015 30.8418 16.3868 30.8418H19.3378H20.8133V36.0913C20.8133 41.5597 22.9653 47.3086 26.6225 51.9071L25.2397 56.8265C25.2397 57.089 25.2397 57.6139 25.5349 57.8764L26.1572 58.6374C20.144 59.5305 13.389 61.8594 4.5827 66.0129C1.77934 67.1942 0.15625 69.6875 0.15625 72.4434V78.0866C0.15625 78.874 0.746385 79.3988 1.63168 79.3988H37.0438H37.634H51.2087H51.7988H87.211C88.0962 79.3988 88.6864 78.874 88.6864 78.0866V72.4434C88.6866 69.8187 86.9158 67.3253 84.2599 66.0129ZM43.5366 64.7982L44.4298 63.0107L46.6351 67.3261L48.0774 70.2124H40.8803L43.5366 64.7982ZM39.7588 72.8371H49.0728L49.9159 76.7741H38.8735L39.7588 72.8371ZM59.9141 54.4643L60.5042 56.8265L58.997 58.6672C58.9008 58.7371 58.8119 58.8219 58.7336 58.9262L52.5964 66.4843L50.6489 68.8626L46.6711 60.9022C51.4259 60.3863 55.6705 58.2634 59.0986 55.2124C59.1366 55.179 59.1747 55.1458 59.2125 55.112C59.2216 55.1038 59.2308 55.0955 59.2399 55.0872C59.4672 54.8844 59.6921 54.6771 59.9141 54.4643ZM57.9918 10.2564C58.1556 10.3533 58.3181 10.4518 58.4787 10.5522C60.3595 11.7988 62.0957 13.2592 63.4554 14.8313L56.6681 16.0124L57.9918 10.2564ZM32.1747 16.0124L25.3874 14.8313C26.7471 13.259 28.4834 11.7987 30.3642 10.552C30.5247 10.4518 30.6872 10.3533 30.851 10.2564L32.1747 16.0124ZM20.8133 26.905C20.8133 23.4128 21.8017 20.1183 23.5908 17.2392L33.7978 19.031C33.9453 19.031 33.9453 19.031 34.093 19.031C34.5356 19.031 34.8308 18.8998 35.2734 18.7685C35.7161 18.5059 35.8636 17.9811 35.7161 17.5874L33.6904 8.81902C34.7573 8.36247 35.8769 7.97033 37.044 7.64793V11.1568C37.044 11.9442 37.6341 12.4691 38.5194 12.4691C39.4047 12.4691 39.9949 11.9442 39.9949 11.1568V5.90739V4.59496C39.9949 3.93874 40.585 3.28268 41.4703 3.28268H47.3723C48.1101 3.28268 48.8478 3.80756 48.8478 4.59496V5.90724V11.1567C48.8478 11.9441 49.4379 12.469 50.3232 12.469C51.2085 12.469 51.7986 11.9441 51.7986 11.1567V7.64793C53.0046 7.98096 54.1604 8.38811 55.2591 8.86421L53.2742 17.4562C53.2742 17.8499 53.4217 18.3748 53.7169 18.6373C54.012 18.8998 54.307 19.031 54.7496 19.031C54.8971 19.031 54.8971 19.031 55.0448 19.031L65.1857 17.1321C67.0168 20.0365 68.0292 23.3697 68.0292 26.905V28.2173H66.5538H22.2889H20.8134V26.905H20.8133ZM23.7643 30.842H65.0783V36.0914C65.0783 41.8138 62.8713 46.8989 59.5576 50.7642L59.4714 50.7896C59.3239 50.9208 59.1763 51.0522 59.0288 51.1833C58.2864 52.0638 57.5029 52.8665 56.6842 53.5903C53.2101 56.469 49.0661 58.2127 45.0732 58.3855C44.8722 58.3087 44.6469 58.2701 44.4213 58.2701C44.1945 58.2701 43.9901 58.3096 43.8067 58.3872C41.3625 58.2874 38.861 57.5984 36.4897 56.4196C34.0875 55.1921 31.8277 53.4225 29.8137 51.1833C29.6662 51.0522 29.5185 50.9208 29.371 50.7896L29.2849 50.7642C25.9712 46.8988 23.7641 41.8137 23.7641 36.0914V30.842H23.7643ZM42.1715 60.9025L38.1937 68.8629L36.2463 66.4846L30.109 58.9265C30.0621 58.8847 30.01 58.8433 29.9562 58.8025L28.3384 56.8266L28.9286 54.4644C29.1286 54.656 29.3315 54.8427 29.5363 55.0264C33.0001 58.1771 37.3202 60.3762 42.1715 60.9025ZM3.10728 72.4434C3.10728 70.7375 4.14006 69.1625 5.91082 68.3751C15.3159 63.931 22.0864 61.7007 28.1174 61.0344L36.9225 71.8025L35.8047 76.774H3.10728V72.4434ZM85.7355 76.7743H53.0383L51.9204 71.8028L60.8208 60.9181C66.8308 61.7247 73.7224 63.9534 82.932 68.2441C84.7026 69.1627 85.7355 70.7376 85.7355 72.4436V76.7743Z"/></svg>
