<svg width="23" height="23" viewBox="0 0 23 23" fill="none" xmlns="http://www.w3.org/2000/svg">
<mask id="mask0" mask-type="alpha" maskUnits="userSpaceOnUse" x="0" y="2" width="22" height="19">
<path d="M14.203 3.73476C14.0983 3.34415 13.8478 3.01761 13.4976 2.81546C12.7747 2.39808 11.847 2.64656 11.4295 3.36964L11.1964 3.77321L10.9634 3.36958C10.546 2.64668 9.61824 2.39808 8.89528 2.8154H8.89522C8.17225 3.23284 7.92371 4.16056 8.34109 4.88358L9.44819 6.80115L5.36318 13.8767H2.38497C1.55015 13.8767 0.870972 14.5558 0.870972 15.3907C0.870972 16.2255 1.55015 16.9047 2.38497 16.9047H13.8829L12.1346 13.8767H8.85961L14.0517 4.88364C14.2539 4.53342 14.3077 4.12537 14.203 3.73476Z" fill="black"/>
<path d="M20.0081 13.8766H17.0299L13.6442 8.01239L11.896 11.0404L17.1528 20.1454C17.355 20.4957 17.6815 20.7463 18.0722 20.851C18.2026 20.8859 18.335 20.9032 18.4665 20.9032C18.7288 20.9032 18.9878 20.8344 19.2211 20.6997C19.9441 20.2822 20.1926 19.3545 19.7752 18.6316L18.7781 16.9046H20.0081C20.8429 16.9046 21.5221 16.2255 21.5221 15.3906C21.5221 14.5558 20.8429 13.8766 20.0081 13.8766Z" fill="black"/>
<path d="M2.916 18.1158L2.61823 18.6315C2.20085 19.3545 2.44945 20.2823 3.17241 20.6997C3.41023 20.837 3.67015 20.9022 3.92687 20.9022C4.45047 20.9022 4.96044 20.6306 5.24059 20.1455L6.41243 18.1158H2.916Z" fill="black"/>
</mask>
<g mask="url(#mask0)">
<rect width="22.6452" height="22.6452" fill="url(#paint0_linear)"/>
</g>
<defs>
<linearGradient id="paint0_linear" x1="11.3226" y1="0" x2="11.3226" y2="22.6452" gradientUnits="userSpaceOnUse">
<stop stop-color="#19E4FF"/>
<stop offset="1" stop-color="#1E53EE"/>
</linearGradient>
</defs>
</svg>
