<svg width="336" height="312" viewBox="0 0 336 312" fill="none" xmlns="http://www.w3.org/2000/svg">
<path d="M322.595 285.585L315.702 272.994L308.772 285.585L296.18 292.516L308.772 299.409L315.702 312L322.595 299.409L335.186 292.516L322.595 285.585Z" fill="#F2F2F2"/>
<path d="M35.2898 13.864L24.4858 10.9559L27.8648 21.637L24.9773 32.4193L35.6161 29.0413L46.419 31.9071L43.0411 21.2683L45.9285 10.4861L35.2898 13.864Z" fill="#F2F2F2"/>
<path d="M238.456 55.9751L227.652 53.067L231.031 63.7481L228.144 74.5304L238.783 71.1524L249.607 74.0389L246.208 63.3794L249.095 52.5971L238.456 55.9751Z" fill="#F2F2F2"/>
<path d="M40.9878 263.614L30.2055 260.727L33.5835 271.365L30.6754 282.169L41.3349 278.77L52.1387 281.678L48.7391 271.018L51.6266 260.236L40.9878 263.614Z" fill="#F2F2F2"/>
<path d="M139.344 258.785C140.143 262.587 137.683 266.293 133.881 267.092C130.079 267.89 126.373 265.43 125.574 261.628C124.775 257.827 127.235 254.089 131.037 253.322C134.839 252.555 138.577 254.983 139.344 258.785Z" fill="#F2F2F2"/>
<path d="M121.037 239.743C136.884 236.453 152.475 246.676 155.766 262.555L165.19 260.606C160.813 239.552 140.143 225.973 119.088 230.35L121.037 239.743Z" fill="#F2F2F2"/>
<path d="M115.957 215.239C145.35 209.136 174.232 228.114 180.302 257.475L191.069 255.239C183.752 219.903 149.056 197.124 113.72 204.472L115.957 215.239Z" fill="#F2F2F2"/>
<path d="M110.941 190.957C153.72 182.076 195.701 209.68 204.583 252.427L216.18 250.031C205.989 200.862 157.682 169.168 108.545 179.36L110.941 190.957Z" fill="#F2F2F2"/>
<path d="M107.65 16.0001L-17.9659 61.0659L11.7872 143.999L137.403 98.9335L107.65 16.0001Z" fill="#F2F2F2"/>
<path d="M9.44958 137.568L54.5759 65.7397L11.7526 143.979L9.44958 137.568Z" fill="#F2F2F2"/>
<path d="M135.056 92.5043L54.576 65.7397L137.36 98.9154L135.056 92.5043Z" fill="#F2F2F2"/>
<path d="M-18 61.0716L68.8915 105.638L107.607 16.0076L-18 61.0716Z" fill="#F2F2F2"/>
<path d="M-18 61.0716L64.7835 94.2473L107.607 16.0076L-18 61.0716Z" fill="#F9F9F9"/>
</svg>
