<svg width="288" height="365" viewBox="0 0 288 365" fill="none" xmlns="http://www.w3.org/2000/svg">
<path d="M359.605 204.546V196.06L348.259 193.944C347.489 190.482 346.119 187.237 344.268 184.328L350.807 174.809L344.797 168.799L335.277 175.337C332.368 173.486 329.147 172.116 325.661 171.347L323.546 160H315.06L312.944 171.347C309.482 172.116 306.237 173.486 303.328 175.337L293.809 168.799L287.799 174.809L294.337 184.328C292.486 187.237 291.116 190.458 290.347 193.944L279 196.06V204.546L290.347 206.661C291.116 210.123 292.486 213.368 294.337 216.277L287.799 225.797L293.809 231.807L303.328 225.268C306.237 227.119 309.458 228.489 312.944 229.259L315.06 240.605H323.546L325.661 229.259C329.123 228.489 332.368 227.119 335.277 225.268L344.797 231.807L350.807 225.797L344.268 216.277C346.119 213.368 347.489 210.147 348.259 206.661L359.605 204.546ZM319.315 218.537C309.266 218.537 301.093 210.363 301.093 200.291C301.093 190.242 309.266 182.069 319.315 182.069C329.363 182.069 337.537 190.242 337.537 200.291C337.537 210.363 329.363 218.537 319.315 218.537Z" fill="#F2F2F2"/>
<path d="M359.605 328.182V319.696L348.259 317.581C347.489 314.119 346.119 310.874 344.268 307.965L350.807 298.445L344.797 292.435L335.277 298.974C332.368 297.123 329.147 295.752 325.661 294.983L323.546 283.636H315.06L312.944 294.983C309.482 295.752 306.237 297.123 303.328 298.974L293.809 292.435L287.799 298.445L294.337 307.965C292.486 310.874 291.116 314.095 290.347 317.581L279 319.696V328.182L290.347 330.298C291.116 333.759 292.486 337.005 294.337 339.914L287.799 349.433L293.809 355.443L303.328 348.904C306.237 350.756 309.458 352.126 312.944 352.895L315.06 364.242H323.546L325.661 352.895C329.123 352.126 332.368 350.756 335.277 348.904L344.797 355.443L350.807 349.433L344.268 339.914C346.119 337.005 347.489 333.783 348.259 330.298L359.605 328.182ZM319.315 342.173C309.266 342.173 301.093 334 301.093 323.951C301.093 313.903 309.266 305.729 319.315 305.729C329.363 305.729 337.537 313.903 337.537 323.951C337.537 334 329.363 342.173 319.315 342.173Z" fill="#F2F2F2"/>
<path d="M62.6708 130.488L58.3676 122.603L54.0405 130.488L46.1794 134.791L54.0405 139.094L58.3676 146.955L62.6708 139.094L70.5317 134.791L62.6708 130.488Z" fill="#F2F2F2"/>
<path d="M176.955 336.509L172.652 328.624L168.325 336.509L160.464 340.812L168.325 345.115L172.652 353L176.955 345.115L184.816 340.812L176.955 336.509Z" fill="#F2F2F2"/>
<path d="M230.084 180.466L225.781 172.605L221.478 180.466L213.593 184.769L221.478 189.097L225.781 196.958L230.084 189.097L237.945 184.769L230.084 180.466Z" fill="#F2F2F2"/>
<path d="M62.6708 7.88506L58.3676 0L54.0405 7.88506L46.1794 12.1882L54.0405 16.4913L58.3676 24.3763L62.6708 16.4913L70.5317 12.1882L62.6708 7.88506Z" fill="#F2F2F2"/>
<path d="M97.2596 285.501C75.3834 278.842 55.839 291.607 49.829 311.344C44.0595 330.311 54.6611 346.129 70.7437 351.033C77.6191 353.125 82.9319 353.798 89.5188 352.957L89.4947 346.802C84.9993 347.644 79.4461 347.115 74.4939 345.624C60.07 341.225 52.5215 328.869 57.4497 312.714C63.075 294.227 79.5903 286.559 94.3988 291.078C109.4 295.646 114.544 307.906 110.722 320.479C107.332 331.609 100.481 335.335 96.346 333.989C93.6536 333.076 93.7738 330.263 96.4903 324.83L104.856 307.81C102.837 305.718 98.3413 303.17 94.0622 301.872C80.1192 297.617 68.1474 305.718 64.5414 317.522C62.1134 325.455 65.2385 331.489 71.537 333.412C76.6815 334.975 81.802 333.797 86.2974 329.758L86.4897 329.83C85.4079 335.095 87.9802 338.437 92.5478 339.831C103.005 343.028 113.655 336.537 117.958 322.402C122.934 306.127 114.304 290.693 97.2596 285.501ZM88.9178 319.133C86.3215 324.469 81.177 327.883 77.595 326.777C74.3978 325.816 73.4602 322.979 74.5901 319.301C76.8498 311.848 83.8213 307.089 90.1919 309.036C91.4419 309.42 92.3555 309.901 93.0767 310.334L88.9178 319.133Z" fill="#F2F2F2"/>
<path d="M251.912 103.112C249.532 109.314 242.56 112.391 236.382 110.011L171.667 85.0337C165.465 82.6538 162.388 75.6822 164.792 69.504L178.086 35.055C180.466 28.8527 187.437 25.7756 193.615 28.1556L258.33 53.1329C264.533 55.5129 267.61 62.4844 265.206 68.6626L251.912 103.112Z" fill="#F2F2F2"/>
<path d="M202.245 46.3293L190.274 77.3647L235.541 77.0041L202.245 46.3293Z" fill="white"/>
<path opacity="0.4" d="M244.58 88.736L179.865 63.7587C173.662 61.3788 170.585 54.4072 172.989 48.229L164.792 69.4802C162.412 75.6824 165.489 82.6299 171.667 85.0099L236.382 109.987C242.584 112.367 249.532 109.29 251.912 103.088L260.109 81.8366C257.729 88.0389 250.758 91.116 244.58 88.736Z" fill="#F2F2F2"/>
<path d="M140.147 178.984L97.7405 218.938L155.604 225.814" stroke="#F2F2F2" stroke-width="2" stroke-miterlimit="10"/>
<path d="M105.313 216.439C106.707 220.621 104.423 225.141 100.24 226.511C96.0573 227.906 91.5379 225.622 90.1436 221.439C88.7493 217.256 91.033 212.736 95.2159 211.342C99.4229 209.972 103.942 212.256 105.313 216.439Z" fill="#F2F2F2"/>
<path d="M147.719 176.484C149.113 180.667 146.83 185.187 142.647 186.581C138.464 187.975 133.944 185.691 132.574 181.508C131.18 177.326 133.463 172.806 137.646 171.412C141.829 170.017 146.349 172.277 147.719 176.484Z" fill="#F2F2F2"/>
<path d="M163.177 223.313C164.571 227.496 162.287 232.016 158.104 233.386C153.921 234.78 149.402 232.497 148.032 228.314C146.637 224.131 148.921 219.611 153.104 218.217C157.287 216.847 161.806 219.13 163.177 223.313Z" fill="#F2F2F2"/>
<path d="M18.3843 222.328C17.567 226.728 13.3119 229.637 8.91266 228.819C4.3451 227.978 1.43628 223.723 2.25363 219.299C3.09502 214.804 7.37411 211.775 11.9176 212.64C16.3169 213.458 19.2257 217.809 18.3843 222.328ZM36.6065 217.472C37.3757 217.617 37.8085 218.17 37.2075 218.795L7.0135 249.974C6.55674 250.479 6.2923 250.695 5.6913 250.575L0.883346 249.686C0.114073 249.541 -0.318643 248.989 0.282351 248.364L30.5244 217.184C30.9812 216.679 31.2456 216.463 31.8466 216.583L36.6065 217.472ZM7.51835 220.285C7.22987 221.776 8.28761 223.29 9.87424 223.579C11.3166 223.843 12.8792 222.809 13.1677 221.319C13.4562 219.732 12.3744 218.194 10.932 217.929C9.34537 217.665 7.83087 218.698 7.51835 220.285ZM34.3708 248.46C33.5534 252.859 29.2984 255.768 24.8991 254.95C20.3315 254.109 17.4227 249.854 18.2401 245.431C19.0815 240.935 23.3606 237.906 27.9041 238.772C32.3274 239.613 35.2122 243.964 34.3708 248.46ZM23.5289 246.44C23.2404 247.931 24.2981 249.445 25.8847 249.734C27.3271 249.998 28.8897 248.965 29.1542 247.498C29.4426 245.911 28.3608 244.373 26.9184 244.109C25.3318 243.82 23.8173 244.854 23.5289 246.44Z" fill="#F2F2F2"/>
</svg>
