<svg width="222" height="215" viewBox="0 0 222 215" fill="none" xmlns="http://www.w3.org/2000/svg">
<path d="M213.16 196.341L208.422 187.684L203.657 196.341L195 201.106L203.657 205.845L208.422 214.501L213.16 205.845L221.817 201.106L213.16 196.341Z" fill="#F2F2F2"/>
<path d="M15.6369 9.53154L8.20912 7.53219L10.5322 14.8755L8.54703 22.2883L15.8612 19.966L23.2883 21.9362L20.9659 14.622L22.9511 7.20918L15.6369 9.53154Z" fill="#F2F2F2"/>
<path d="M155.315 38.4831L147.887 36.4837L150.21 43.827L148.225 51.2399L155.539 48.9175L162.981 50.902L160.644 43.5736L162.629 36.1607L155.315 38.4831Z" fill="#F2F2F2"/>
<path d="M19.5543 181.236L12.1415 179.251L14.4639 186.565L12.4645 193.993L19.7929 191.655L27.2206 193.655L24.8834 186.326L26.8686 178.913L19.5543 181.236Z" fill="#F2F2F2"/>
<path d="M87.1745 177.916C87.7237 180.53 86.0324 183.077 83.4185 183.627C80.8047 184.176 78.2568 182.484 77.7076 179.871C77.1585 177.257 78.8498 174.687 81.4636 174.16C84.0775 173.633 86.6474 175.302 87.1745 177.916Z" fill="#F2F2F2"/>
<path d="M74.5886 164.824C85.4832 162.562 96.2021 169.591 98.4645 180.507L104.944 179.168C101.935 164.693 87.7236 155.357 73.2487 158.367L74.5886 164.824Z" fill="#F2F2F2"/>
<path d="M71.0957 147.977C91.3035 143.782 111.16 156.829 115.333 177.015L122.735 175.477C117.705 151.184 93.8515 135.523 69.5582 140.575L71.0957 147.977Z" fill="#F2F2F2"/>
<path d="M67.6474 131.284C97.0585 125.178 125.92 144.155 132.027 173.545L140 171.897C132.993 138.093 99.7821 116.304 66 123.311L67.6474 131.284Z" fill="#F2F2F2"/>
<path d="M65.3848 11L-20.9766 41.9829L-0.521167 99L85.8402 68.017L65.3848 11Z" fill="#F2F2F2"/>
<path d="M-2.1283 94.5787L28.8962 45.1963L-0.544997 98.9864L-2.1283 94.5787Z" fill="#F2F2F2"/>
<path d="M84.2268 63.597L28.8962 45.1963L85.8102 68.0047L84.2268 63.597Z" fill="#F2F2F2"/>
<path d="M-21 41.9867L38.7382 72.6261L65.3551 11.005L-21 41.9867Z" fill="#F2F2F2"/>
<path d="M-21 41.9867L35.9139 64.7951L65.3551 11.005L-21 41.9867Z" fill="#F9F9F9"/>
</svg>
