<svg width="257" height="163" viewBox="0 0 257 163" fill="none" xmlns="http://www.w3.org/2000/svg">
<path d="M37.0093 99.5015C34.8239 99.5015 33.0579 101.267 33.0579 103.453C33.0579 105.638 34.8239 107.404 37.0093 107.404C39.1948 107.404 40.9608 105.638 40.9608 103.453C40.9498 101.267 39.1837 99.5015 37.0093 99.5015Z" fill="#F2F2F2"/>
<path d="M55.5083 105.396V101.499L50.2985 100.528C49.9453 98.9386 49.3162 97.4485 48.4663 96.1129L51.4685 91.742L48.7091 88.9826L44.3382 91.9849C43.0027 91.135 41.5236 90.5058 39.9232 90.1526L38.9519 84.9429H35.0556L34.0843 90.1526C32.4949 90.5058 31.0048 91.135 29.6692 91.9849L25.2983 88.9826L22.5389 91.742L25.5412 96.1129C24.6913 97.4485 24.0621 98.9275 23.7089 100.528L18.4991 101.499V105.396L23.7089 106.367C24.0621 107.956 24.6913 109.446 25.5412 110.782L22.5389 115.153L25.2983 117.912L29.6692 114.91C31.0048 115.76 32.4838 116.389 34.0843 116.742L35.0556 121.952H38.9519L39.9232 116.742C41.5126 116.389 43.0027 115.76 44.3382 114.91L48.7091 117.912L51.4685 115.153L48.4663 110.782C49.3162 109.446 49.9453 107.967 50.2985 106.367L55.5083 105.396ZM37.0092 111.819C32.3955 111.819 28.6427 108.067 28.6427 103.442C28.6427 98.8282 32.3955 95.0754 37.0092 95.0754C41.623 95.0754 45.3758 98.8282 45.3758 103.442C45.3758 108.067 41.623 111.819 37.0092 111.819Z" fill="#F2F2F2"/>
<path d="M18.5101 71.2671C16.3246 71.2671 14.5586 73.0331 14.5586 75.2186C14.5586 77.404 16.3246 79.17 18.5101 79.17C20.6955 79.17 22.4615 77.404 22.4615 75.2186C22.4505 73.0331 20.6845 71.2671 18.5101 71.2671Z" fill="#F2F2F2"/>
<path d="M37.0091 77.1612V73.2649L31.7994 72.2936C31.4462 70.7042 30.817 69.2141 29.9671 67.8786L32.9694 63.5077L30.21 60.7483L25.8391 63.7505C24.5035 62.9006 23.0245 62.2715 21.424 61.9183L20.4527 56.7085H16.5564L15.5851 61.9183C13.9957 62.2715 12.5056 62.9006 11.1701 63.7505L6.79918 60.7483L4.03977 63.5077L7.04201 67.8786C6.19211 69.2141 5.56296 70.6932 5.20976 72.2936L0 73.2649V77.1612L5.20976 78.1325C5.56296 79.7219 6.19211 81.212 7.04201 82.5476L4.03977 86.9185L6.79918 89.6779L11.1701 86.6756C12.5056 87.5255 13.9847 88.1547 15.5851 88.5079L16.5564 93.7176H20.4527L21.424 88.5079C23.0134 88.1547 24.5035 87.5255 25.8391 86.6756L30.21 89.6779L32.9694 86.9185L29.9671 82.5476C30.817 81.212 31.4462 79.733 31.7994 78.1325L37.0091 77.1612ZM18.5101 83.5851C13.8964 83.5851 10.1436 79.8323 10.1436 75.2076C10.1436 70.5938 13.8964 66.841 18.5101 66.841C23.1238 66.841 26.8766 70.5938 26.8766 75.2076C26.8766 79.8323 23.1238 83.5851 18.5101 83.5851Z" fill="#F2F2F2"/>
<path d="M18.5101 128.033C16.3246 128.033 14.5586 129.799 14.5586 131.985C14.5586 134.17 16.3246 135.936 18.5101 135.936C20.6955 135.936 22.4615 134.17 22.4615 131.985C22.4505 129.799 20.6845 128.033 18.5101 128.033Z" fill="#F2F2F2"/>
<path d="M37.0091 133.928V130.031L31.7994 129.06C31.4462 127.471 30.817 125.98 29.9671 124.645L32.9694 120.274L30.21 117.515L25.8391 120.517C24.5035 119.667 23.0245 119.038 21.424 118.685L20.4527 113.475H16.5564L15.5851 118.685C13.9957 119.038 12.5056 119.667 11.1701 120.517L6.79918 117.515L4.03977 120.274L7.04201 124.645C6.19211 125.98 5.56296 127.46 5.20976 129.06L0 130.031V133.928L5.20976 134.899C5.56296 136.488 6.19211 137.978 7.04201 139.314L4.03977 143.685L6.79918 146.444L11.1701 143.442C12.5056 144.292 13.9847 144.921 15.5851 145.274L16.5564 150.484H20.4527L21.424 145.274C23.0134 144.921 24.5035 144.292 25.8391 143.442L30.21 146.444L32.9694 143.685L29.9671 139.314C30.817 137.978 31.4462 136.499 31.7994 134.899L37.0091 133.928ZM18.5101 140.351C13.8964 140.351 10.1436 136.599 10.1436 131.985C10.1436 127.371 13.8964 123.618 18.5101 123.618C23.1238 123.618 26.8766 127.371 26.8766 131.985C26.8766 136.599 23.1238 140.351 18.5101 140.351Z" fill="#F2F2F2"/>
<path d="M57.2413 59.9121L55.2655 56.2917L53.2787 59.9121L49.6694 61.8878L53.2787 63.8636L55.2655 67.4729L57.2413 63.8636L60.8505 61.8878L57.2413 59.9121Z" fill="#F2F2F2"/>
<path d="M199.472 108.798L197.496 105.188L195.521 108.798L191.9 110.784L195.521 112.76L197.496 116.369L199.472 112.76L203.092 110.784L199.472 108.798Z" fill="#F2F2F2"/>
<path d="M109.714 154.505L107.738 150.884L105.751 154.505L102.142 156.48L105.751 158.456L107.738 162.076L109.714 158.456L113.323 156.48L109.714 154.505Z" fill="#F2F2F2"/>
<path d="M134.107 82.8593L132.132 79.25L130.156 82.8593L126.536 84.835L130.156 86.8218L132.132 90.4311L134.107 86.8218L137.717 84.835L134.107 82.8593Z" fill="#F2F2F2"/>
<path d="M57.2413 3.62034L55.2655 0L53.2787 3.62034L49.6694 5.59607L53.2787 7.57181L55.2655 11.1921L57.2413 7.57181L60.8505 5.59607L57.2413 3.62034Z" fill="#F2F2F2"/>
<path d="M226.547 63.7072C216.503 60.6498 207.529 66.5108 204.77 75.5727C202.121 84.2814 206.989 91.5441 214.373 93.7958C217.53 94.7561 219.969 95.0651 222.993 94.6788L222.982 91.8532C220.918 92.2395 218.368 91.9966 216.095 91.3123C209.472 89.2924 206.006 83.6191 208.269 76.2018C210.852 67.7139 218.435 64.1929 225.234 66.2679C232.121 68.3651 234.483 73.9943 232.728 79.767C231.172 84.8774 228.026 86.5882 226.128 85.9701C224.892 85.5507 224.947 84.2593 226.194 81.7648L230.035 73.9501C229.108 72.9899 227.044 71.8199 225.079 71.2238C218.677 69.2702 213.181 72.9899 211.525 78.4093C210.41 82.0517 211.845 84.8222 214.737 85.7052C217.099 86.4226 219.45 85.8818 221.514 84.0275L221.602 84.0606C221.106 86.4778 222.287 88.0121 224.384 88.6523C229.185 90.1203 234.075 87.1401 236.051 80.65C238.335 73.1775 234.373 66.0914 226.547 63.7072ZM222.717 79.1489C221.525 81.5992 219.163 83.1666 217.518 82.6588C216.05 82.2173 215.62 80.9149 216.139 79.2261C217.176 75.8045 220.377 73.619 223.302 74.5131C223.876 74.6897 224.296 74.9104 224.627 75.1091L222.717 79.1489Z" fill="#F2F2F2"/>
<path d="M144.129 47.3425C143.037 50.1903 139.836 51.6031 136.999 50.5103L107.286 39.0422C104.438 37.9495 103.025 34.7486 104.129 31.9119L110.233 16.095C111.325 13.2473 114.526 11.8345 117.363 12.9272L147.076 24.3953C149.924 25.4881 151.337 28.689 150.233 31.5256L144.129 47.3425Z" fill="#F2F2F2"/>
<path d="M121.325 21.2715L115.829 35.5211L136.613 35.3555L121.325 21.2715Z" fill="white"/>
<path opacity="0.4" d="M140.763 40.7422L111.05 29.2741C108.202 28.1814 106.789 24.9805 107.893 22.1438L104.129 31.9011C103.036 34.7488 104.449 37.9386 107.286 39.0314L136.999 50.4994C139.847 51.5922 143.037 50.1794 144.129 47.3316L147.893 37.5744C146.8 40.4221 143.599 41.8349 140.763 40.7422Z" fill="#F2F2F2"/>
<path d="M246.238 14.8013L226.768 33.1458L253.335 36.3026" stroke="#F2F2F2" stroke-width="2" stroke-miterlimit="10"/>
<path d="M230.245 31.998C230.885 33.9185 229.836 35.9936 227.916 36.6227C225.995 37.2629 223.92 36.2143 223.28 34.2938C222.64 32.3732 223.688 30.2982 225.609 29.658C227.54 29.0289 229.616 30.0774 230.245 31.998Z" fill="#F2F2F2"/>
<path d="M249.715 13.6532C250.355 15.5738 249.307 17.6489 247.386 18.289C245.466 18.9292 243.39 17.8807 242.761 15.9601C242.121 14.0396 243.17 11.9645 245.09 11.3243C247.011 10.6841 249.086 11.7217 249.715 13.6532Z" fill="#F2F2F2"/>
<path d="M256.812 35.1545C257.452 37.075 256.404 39.1501 254.483 39.7792C252.563 40.4194 250.488 39.3708 249.858 37.4503C249.218 35.5297 250.267 33.4547 252.187 32.8145C254.108 32.1853 256.183 33.2339 256.812 35.1545Z" fill="#F2F2F2"/>
<path d="M190.333 34.702C189.957 36.7219 188.004 38.0575 185.984 37.6822C183.887 37.2959 182.551 35.3422 182.926 33.3113C183.313 31.2473 185.277 29.8565 187.364 30.2539C189.383 30.6292 190.719 32.627 190.333 34.702ZM198.699 32.4724C199.052 32.5387 199.251 32.7925 198.975 33.0795L185.112 47.3953C184.902 47.6271 184.781 47.7264 184.505 47.6712L182.297 47.2628C181.944 47.1966 181.745 46.9428 182.021 46.6558L195.907 32.34C196.116 32.1082 196.238 32.0089 196.514 32.064L198.699 32.4724ZM185.344 33.7638C185.211 34.4482 185.697 35.1435 186.425 35.276C187.088 35.3974 187.805 34.9228 187.938 34.2385C188.07 33.51 187.573 32.8036 186.911 32.6822C186.183 32.5607 185.487 33.0354 185.344 33.7638ZM197.673 46.6999C197.297 48.7198 195.344 50.0554 193.324 49.6801C191.227 49.2938 189.891 47.3401 190.266 45.3092C190.653 43.2452 192.617 41.8544 194.704 42.2518C196.735 42.6381 198.059 44.6359 197.673 46.6999ZM192.695 45.7728C192.562 46.4571 193.048 47.1525 193.776 47.2849C194.439 47.4063 195.156 46.9317 195.278 46.2584C195.41 45.5299 194.913 44.8235 194.251 44.7021C193.523 44.5697 192.827 45.0443 192.695 45.7728Z" fill="#F2F2F2"/>
</svg>
