<svg width="270" height="198" viewBox="0 0 270 198" fill="none" xmlns="http://www.w3.org/2000/svg">
<path d="M271.246 28.9112C275.219 36.9808 271.904 46.759 263.814 50.732L246.172 59.4191C238.103 63.3922 228.345 60.0779 224.372 51.9877C220.399 43.9181 223.713 34.14 231.804 30.1875L249.445 21.5004C257.515 17.5068 267.273 20.8211 271.246 28.9112Z" fill="#F2F2F2"/>
<path opacity="0.4" d="M259.738 42.3949L242.096 51.0821C235.468 54.3346 227.707 52.6877 222.952 47.5207C223.219 49.0235 223.672 50.5263 224.393 51.9878C228.366 60.0574 238.123 63.3923 246.193 59.4193L263.835 50.7321C271.904 46.7591 275.239 37.0015 271.266 28.9114C270.546 27.4704 269.66 26.1735 268.611 25.0413C269.784 31.9786 266.367 39.1218 259.738 42.3949Z" fill="#F2F2F2"/>
<path d="M215.973 60.9631C217.064 63.1658 216.158 65.8419 213.935 66.933L197.261 75.1466C195.058 76.2377 192.382 75.3319 191.312 73.1292L187.462 65.3273C186.371 63.1246 187.277 60.4485 189.5 59.3574L206.195 51.1438C208.398 50.0527 211.074 50.9585 212.165 53.1817L215.973 60.9631Z" fill="#F9F9F9"/>
<path opacity="0.4" d="M210.044 59.0282L193.349 67.2418C191.167 68.3123 188.512 67.4271 187.421 65.2656C187.421 65.2862 187.421 65.3068 187.441 65.3068L191.291 73.1087C192.382 75.3114 195.038 76.2171 197.24 75.1261L213.915 66.9125C216.117 65.8214 217.023 63.1659 215.952 60.9426L212.124 53.1407C212.103 53.1201 212.103 53.1201 212.103 53.0995C213.153 55.3021 212.247 57.9371 210.044 59.0282Z" fill="#F2F2F2"/>
<path d="M210.436 70.2471C211.568 72.5733 210.621 75.3729 208.315 76.5051C205.989 77.6373 203.189 76.6904 202.057 74.3642L193.02 55.9812C191.888 53.6551 192.835 50.8554 195.161 49.7232C197.467 48.591 200.287 49.5379 201.419 51.8641L210.436 70.2471Z" fill="#F2F2F2"/>
<path d="M203.231 66.2123C200.905 67.3445 198.105 66.3976 196.973 64.092L202.037 74.3848C203.19 76.6904 205.989 77.6579 208.295 76.5257C210.6 75.3935 211.568 72.5733 210.415 70.2677L205.351 59.9749C206.504 62.2804 205.536 65.0801 203.231 66.2123Z" fill="#F2F2F2"/>
<path d="M246.739 9.9155e-05L243.711 1.49231L276.185 67.395L279.213 65.9028L246.739 9.9155e-05Z" fill="#F2F2F2"/>
<path d="M271.33 49.935L268.302 51.4272L276.172 67.3997L279.2 65.9075L271.33 49.935Z" fill="#F2F2F2"/>
<path d="M227.815 30.4015L193.85 47.1191L209.577 79.0712L243.542 62.3536L227.815 30.4015Z" fill="#F2F2F2"/>
<path d="M235.682 46.3858L201.717 63.1034L209.58 79.0795L243.545 62.3618L235.682 46.3858Z" fill="#F2F2F2"/>
<path d="M227.81 30.4344L243.743 1.49097L276.186 67.4267L243.537 62.4038L227.81 30.4344Z" fill="#F9F9F9"/>
<path d="M268.323 51.432L235.674 46.4091L243.538 62.4041L276.186 67.427L268.323 51.432Z" fill="#F9F9F9"/>
<path d="M212.741 77.555L214.614 81.3634L225.216 82.5779L236.991 106.498L253.048 98.5935L251.422 95.3204L250.125 95.9586L247.099 94.9293L233.512 67.324L212.741 77.555Z" fill="#F9F9F9"/>
<path opacity="0.4" d="M233.492 67.3313L212.713 77.5559L213.85 79.8646L234.628 69.64L233.492 67.3313Z" fill="#F2F2F2"/>
<path d="M237.547 65.3478L242.261 74.8995L239.503 79.4901L233.512 67.324L237.547 65.3478Z" fill="#F9F9F9"/>
<path d="M237.532 65.337L233.509 67.3241L234.648 69.6312L238.672 67.6441L237.532 65.337Z" fill="#F2F2F2"/>
<path d="M121.944 137.846L144.567 146.884L136.559 136.158L121.944 137.846Z" fill="#F9F9F9"/>
<path d="M74.6171 144.743C76.3051 150.157 82.0485 153.162 87.4625 151.474L136.436 136.2C141.85 134.512 144.855 128.768 143.167 123.354L135.159 97.6633C133.471 92.2493 127.728 89.2438 122.314 90.9318L73.3408 106.206C67.9268 107.894 64.9213 113.638 66.6093 119.052L74.6171 144.743Z" fill="#F9F9F9"/>
<path d="M73.2994 140.481L59.8158 160.779L60.3098 147.398L73.2994 140.481Z" fill="#F2F2F2"/>
<path d="M116.138 119.237C117.826 124.651 114.8 130.394 109.407 132.083L60.4336 147.357C55.0196 149.045 49.2762 146.019 47.5882 140.626L39.5804 114.935C37.8924 109.521 40.9185 103.777 46.3119 102.089L95.2851 86.8147C100.699 85.1267 106.443 88.1528 108.131 93.5462L116.138 119.237Z" fill="#F2F2F2"/>
<path d="M99.596 95.5369L47.678 111.733L49.088 116.253L101.006 100.057L99.596 95.5369Z" fill="#F2F2F2"/>
<path d="M103.095 106.732L51.1765 122.929L52.5865 127.449L104.505 111.252L103.095 106.732Z" fill="#F2F2F2"/>
<path d="M106.593 117.935L54.6753 134.131L56.0853 138.651L108.003 122.455L106.593 117.935Z" fill="#F2F2F2"/>
<path d="M135.577 45.7521L131.892 39L128.187 45.7521L121.455 49.4369L128.187 53.1217L131.892 59.8532L135.577 53.1217L142.308 49.4369L135.577 45.7521Z" fill="#F2F2F2"/>
<path d="M211.122 166.752L207.437 160L203.732 166.752L197 170.437L203.732 174.122L207.437 180.874L211.122 174.122L217.853 170.437L211.122 166.752Z" fill="#F2F2F2"/>
<path d="M14.1217 167.187L10.4369 160.455L6.75208 167.187L0 170.871L6.75208 174.556L10.4369 181.308L14.1217 174.556L20.8533 170.871L14.1217 167.187Z" fill="#F2F2F2"/>
</svg>
