<svg width="16" height="15" viewBox="0 0 16 15" fill="none" xmlns="http://www.w3.org/2000/svg">
<path d="M2.94727 15H13.5527C14.7643 15 15.75 14.0143 15.75 12.8027V2.19727C15.75 0.98568 14.7643 0 13.5527 0H2.94727C1.73568 0 0.75 0.98568 0.75 2.19727V12.8027C0.75 14.0143 1.73568 15 2.94727 15ZM1.62891 2.19727C1.62891 1.47034 2.22034 0.878906 2.94727 0.878906H13.5527C14.2797 0.878906 14.8711 1.47034 14.8711 2.19727V12.8027C14.8711 13.5297 14.2797 14.1211 13.5527 14.1211H2.94727C2.22034 14.1211 1.62891 13.5297 1.62891 12.8027V2.19727Z" fill="#4F4F4F"/>
<path d="M8.25 11.4551C10.4308 11.4551 12.2051 9.68079 12.2051 7.5C12.2051 5.31921 10.4308 3.54492 8.25 3.54492C6.06921 3.54492 4.29492 5.31921 4.29492 7.5C4.29492 9.68079 6.06921 11.4551 8.25 11.4551ZM8.25 4.42383C9.94624 4.42383 11.3262 5.80376 11.3262 7.5C11.3262 9.19624 9.94624 10.5762 8.25 10.5762C6.55376 10.5762 5.17383 9.19624 5.17383 7.5C5.17383 5.80376 6.55376 4.42383 8.25 4.42383Z" fill="#4F4F4F"/>
<path d="M12.6445 4.42383C13.3715 4.42383 13.9629 3.8324 13.9629 3.10547C13.9629 2.37854 13.3715 1.78711 12.6445 1.78711C11.9176 1.78711 11.3262 2.37854 11.3262 3.10547C11.3262 3.8324 11.9176 4.42383 12.6445 4.42383ZM12.6445 2.66602C12.8868 2.66602 13.084 2.8632 13.084 3.10547C13.084 3.34774 12.8868 3.54492 12.6445 3.54492C12.4023 3.54492 12.2051 3.34774 12.2051 3.10547C12.2051 2.8632 12.4023 2.66602 12.6445 2.66602Z" fill="#4F4F4F"/>
</svg>
