<svg width="320" height="134" viewBox="0 0 320 134" fill="none" xmlns="http://www.w3.org/2000/svg">
<path d="M143.225 65.5908L140.063 59.8154L136.884 65.5908L131.109 68.7699L136.884 71.9314L140.063 77.7067L143.225 71.9314L149 68.7699L143.225 65.5908Z" fill="#F2F2F2"/>
<path d="M11.4429 6.35912L6.48738 5.02521L8.03725 9.92444L6.71282 14.8701L11.5926 13.3207L16.5477 14.6351L14.9983 9.75532L16.3228 4.80971L11.4429 6.35912Z" fill="#F2F2F2"/>
<path d="M104.632 25.6748L99.6762 24.3409L101.226 29.2401L99.9017 34.1857L104.781 32.6363L109.747 33.9603L108.187 29.071L109.512 24.1254L104.632 25.6748Z" fill="#F2F2F2"/>
<path d="M14.0566 120.915L9.11096 119.591L10.6604 124.47L9.32649 129.426L14.2158 127.867L19.1713 129.201L17.612 124.311L18.9364 119.366L14.0566 120.915Z" fill="#F2F2F2"/>
<path d="M59.1707 118.7C59.5371 120.444 58.4087 122.144 56.6648 122.51C54.921 122.876 53.2211 121.748 52.8547 120.004C52.4883 118.26 53.6167 116.546 55.3606 116.194C57.1045 115.842 58.819 116.956 59.1707 118.7Z" fill="#F2F2F2"/>
<path d="M50.7738 109.966C58.0424 108.456 65.1937 113.146 66.7031 120.429L71.0261 119.535C69.0185 109.878 59.5371 103.65 49.8799 105.658L50.7738 109.966Z" fill="#F2F2F2"/>
<path d="M48.4436 98.726C61.9256 95.927 75.1731 104.632 77.9575 118.099L82.896 117.073C79.5401 100.866 63.6255 90.417 47.4178 93.7875L48.4436 98.726Z" fill="#F2F2F2"/>
<path d="M46.1429 87.5887C65.7651 83.5148 85.0209 96.1762 89.0948 115.784L94.4144 114.685C89.7396 92.1316 67.5822 77.5945 45.0438 82.2692L46.1429 87.5887Z" fill="#F2F2F2"/>
<path d="M44.6334 7.33883L-12.9843 28.0097L0.662968 66.0498L58.2807 45.3789L44.6334 7.33883Z" fill="#F2F2F2"/>
<path d="M-0.409363 63.1001L20.2892 30.1536L0.646966 66.0407L-0.409363 63.1001Z" fill="#F2F2F2"/>
<path d="M57.2041 42.43L20.2892 30.1536L58.2604 45.3707L57.2041 42.43Z" fill="#F2F2F2"/>
<path d="M-13 28.0117L26.8555 48.4533L44.6135 7.34161L-13 28.0117Z" fill="#F2F2F2"/>
<path d="M-13 28.0117L24.9713 43.2287L44.6135 7.34161L-13 28.0117Z" fill="#F9F9F9"/>
<path d="M323.47 32.2202C326.523 38.4222 323.976 45.9373 317.758 48.9909L304.199 55.6675C297.997 58.721 290.498 56.1738 287.444 49.956C284.391 43.754 286.938 36.2388 293.156 33.2011L306.715 26.5245C312.917 23.4552 320.416 26.0024 323.47 32.2202Z" fill="#F2F2F2"/>
<path opacity="0.4" d="M314.625 42.5832L301.066 49.2598C295.972 51.7596 290.007 50.4939 286.353 46.5227C286.558 47.6777 286.906 48.8327 287.46 49.956C290.514 56.158 298.013 58.721 304.215 55.6675L317.774 48.9909C323.976 45.9373 326.539 38.438 323.485 32.2202C322.932 31.1127 322.251 30.116 321.444 29.2458C322.346 34.5776 319.72 40.0676 314.625 42.5832Z" fill="#F2F2F2"/>
<path d="M280.989 56.8541C281.828 58.547 281.132 60.6038 279.423 61.4423L266.607 67.755C264.915 68.5936 262.858 67.8974 262.035 66.2045L259.077 60.2082C258.238 58.5153 258.934 56.4586 260.643 55.62L273.474 49.3073C275.167 48.4688 277.224 49.1649 278.062 50.8736L280.989 56.8541Z" fill="#F9F9F9"/>
<path opacity="0.4" d="M276.433 55.3669L263.601 61.6796C261.924 62.5024 259.883 61.822 259.045 60.1608C259.045 60.1766 259.045 60.1925 259.061 60.1925L262.019 66.1887C262.858 67.8816 264.899 68.5778 266.592 67.7392L279.407 61.4265C281.1 60.588 281.796 58.547 280.973 56.8383L278.031 50.842C278.015 50.8262 278.015 50.8262 278.015 50.8104C278.822 52.5033 278.125 54.5284 276.433 55.3669Z" fill="#F2F2F2"/>
<path d="M276.733 63.9894C277.603 65.7772 276.876 67.9289 275.104 68.7991C273.316 69.6692 271.164 68.9415 270.294 67.1537L263.348 53.0252C262.478 51.2373 263.206 49.0856 264.994 48.2155C266.766 47.3453 268.933 48.0731 269.803 49.8609L276.733 63.9894Z" fill="#F2F2F2"/>
<path d="M271.196 60.8884C269.408 61.7586 267.256 61.0308 266.386 59.2588L270.278 67.1695C271.164 68.9415 273.316 69.6851 275.088 68.8149C276.86 67.9448 277.604 65.7772 276.718 64.0052L272.825 56.0945C273.711 57.8665 272.968 60.0182 271.196 60.8884Z" fill="#F2F2F2"/>
<path d="M304.635 10.0001L302.308 11.147L327.266 61.7974L329.593 60.6506L304.635 10.0001Z" fill="#F2F2F2"/>
<path d="M290.09 33.3655L263.986 46.2141L276.073 70.7714L302.177 57.9228L290.09 33.3655Z" fill="#F2F2F2"/>
<path d="M296.137 45.6504L270.032 58.499L276.076 70.7776L302.18 57.929L296.137 45.6504Z" fill="#F2F2F2"/>
<path d="M290.087 33.3908L302.332 11.1459L327.267 61.8218L302.174 57.9614L290.087 33.3908Z" fill="#F9F9F9"/>
<path d="M321.223 49.5288L296.13 45.6683L302.174 57.9616L327.267 61.822L321.223 49.5288Z" fill="#F9F9F9"/>
<path d="M278.505 69.606L279.945 72.533L288.093 73.4664L297.143 91.8509L309.484 85.7755L308.234 83.2599L307.237 83.7503L304.911 82.9593L294.469 61.7428L278.505 69.606Z" fill="#F9F9F9"/>
<path opacity="0.4" d="M294.453 61.7483L278.484 69.6066L279.357 71.381L295.326 63.5227L294.453 61.7483Z" fill="#F2F2F2"/>
<path d="M297.57 60.2239L301.193 67.5651L299.073 71.0932L294.469 61.7428L297.57 60.2239Z" fill="#F9F9F9"/>
<path d="M297.559 60.2156L294.467 61.7429L295.342 63.516L298.435 61.9888L297.559 60.2156Z" fill="#F2F2F2"/>
<path d="M208.721 115.944L226.109 122.89L219.955 114.647L208.721 115.944Z" fill="#F9F9F9"/>
<path d="M172.348 121.244C173.645 125.405 178.059 127.715 182.22 126.418L219.859 114.678C224.02 113.381 226.33 108.967 225.033 104.806L218.879 85.0605C217.581 80.8995 213.167 78.5895 209.006 79.8869L171.367 91.6264C167.206 92.9237 164.896 97.3379 166.193 101.499L172.348 121.244Z" fill="#F9F9F9"/>
<path d="M171.335 117.969L160.972 133.569L161.352 123.285L171.335 117.969Z" fill="#F2F2F2"/>
<path d="M204.26 101.641C205.557 105.802 203.231 110.217 199.086 111.514L161.447 123.253C157.286 124.551 152.872 122.225 151.574 118.08L145.42 98.3347C144.123 94.1737 146.448 89.7595 150.594 88.4621L188.233 76.7227C192.394 75.4253 196.808 77.7511 198.105 81.8963L204.26 101.641Z" fill="#F2F2F2"/>
<path d="M191.546 83.4263L151.644 95.8744L152.727 99.3481L192.63 86.9L191.546 83.4263Z" fill="#F2F2F2"/>
<path d="M194.235 92.0308L154.332 104.479L155.416 107.953L195.318 95.5045L194.235 92.0308Z" fill="#F2F2F2"/>
<path d="M196.924 100.64L157.021 113.089L158.105 116.562L198.008 104.114L196.924 100.64Z" fill="#F2F2F2"/>
<path d="M219.2 45.1633L216.368 39.9739L213.52 45.1633L208.346 47.9954L213.52 50.8274L216.368 56.001L219.2 50.8274L224.373 47.9954L219.2 45.1633Z" fill="#F2F2F2"/>
<path d="M277.261 138.16L274.429 132.97L271.581 138.16L266.407 140.992L271.581 143.824L274.429 149.013L277.261 143.824L282.434 140.992L277.261 138.16Z" fill="#F2F2F2"/>
<path d="M125.853 138.494L123.021 133.32L120.189 138.494L115 141.326L120.189 144.158L123.021 149.347L125.853 144.158L131.027 141.326L125.853 138.494Z" fill="#F2F2F2"/>
</svg>
