<svg width="21" height="15" viewBox="0 0 21 15" fill="none" xmlns="http://www.w3.org/2000/svg">
<path d="M16.8636 0H4.59091C2.33546 0 0.5 1.83543 0.5 4.09091V10.9091C0.5 13.1645 2.33546 15 4.59091 15H16.8636C19.1191 15 20.9546 13.1645 20.9546 10.9091V4.09091C20.9546 1.83543 19.1191 0 16.8636 0ZM20.0455 10.9091C20.0455 12.6636 18.6182 14.0909 16.8636 14.0909H4.59091C2.83636 14.0909 1.40909 12.6636 1.40909 10.9091V4.09091C1.40909 2.33636 2.83636 0.909091 4.59091 0.909091H16.8636C18.6182 0.909091 20.0455 2.33636 20.0455 4.09091V10.9091ZM7.77273 11.3459L14.4341 7.50043L7.77273 3.65408V11.3459ZM8.68182 5.22864L12.6159 7.50047L8.68182 9.77136V5.22864Z" fill="#4F4F4F"/>
</svg>
