<svg width="33" height="47" viewBox="0 0 33 47" fill="none" xmlns="http://www.w3.org/2000/svg">
<path d="M0.736 41.312C5.728 36.56 9.52 32.816 12.112 30.08C14.752 27.344 16.864 24.728 18.448 22.232C20.032 19.736 20.824 17.432 20.824 15.32C20.824 13.064 20.224 11.312 19.024 10.064C17.824 8.768 16.144 8.12 13.984 8.12C12.448 8.12 11.008 8.552 9.664 9.416C8.32 10.28 6.976 11.432 5.632 12.872L0.232 7.544C2.536 5.096 4.84 3.296 7.144 2.144C9.496 0.943999 12.232 0.344 15.352 0.344C19.816 0.344 23.416 1.664 26.152 4.304C28.888 6.896 30.256 10.376 30.256 14.744C30.256 18.296 28.936 21.992 26.296 25.832C23.656 29.624 19.864 34.088 14.92 39.224C17.704 38.888 20.272 38.72 22.624 38.72H32.488V47H0.736V41.312Z" fill="url(#paint0_linear)"/>
<defs>
<linearGradient id="paint0_linear" x1="-2" y1="20.5" x2="36" y2="20.5" gradientUnits="userSpaceOnUse">
<stop stop-color="#2871D7"/>
<stop offset="1" stop-color="#3269B6"/>
</linearGradient>
</defs>
</svg>
