<svg width="34" height="48" viewBox="0 0 34 48" fill="none" xmlns="http://www.w3.org/2000/svg">
<path d="M16.424 47.864C9.752 47.864 4.496 45.704 0.656 41.384L5.192 35.12C8.456 38.288 11.888 39.872 15.488 39.872C17.84 39.872 19.712 39.368 21.104 38.36C22.544 37.304 23.264 35.84 23.264 33.968C23.264 31.664 22.328 29.936 20.456 28.784C18.632 27.632 15.344 27.056 10.592 27.056V20C14.624 20 17.48 19.448 19.16 18.344C20.888 17.192 21.752 15.584 21.752 13.52C21.752 11.792 21.224 10.472 20.168 9.56C19.112 8.6 17.648 8.12 15.776 8.12C14.144 8.12 12.632 8.456 11.24 9.128C9.896 9.8 8.48 10.832 6.992 12.224L2.024 6.176C6.536 2.288 11.264 0.344 16.208 0.344C20.912 0.344 24.656 1.448 27.44 3.656C30.224 5.816 31.616 8.864 31.616 12.8C31.616 17.504 29.048 20.912 23.912 23.024V23.312C26.696 24.128 28.928 25.496 30.608 27.416C32.288 29.288 33.128 31.664 33.128 34.544C33.128 37.28 32.384 39.656 30.896 41.672C29.408 43.688 27.392 45.224 24.848 46.28C22.304 47.336 19.496 47.864 16.424 47.864Z" fill="url(#paint0_linear)"/>
<defs>
<linearGradient id="paint0_linear" x1="-1" y1="20.5" x2="37" y2="20.5" gradientUnits="userSpaceOnUse">
<stop stop-color="#2871D7"/>
<stop offset="1" stop-color="#3269B6"/>
</linearGradient>
</defs>
</svg>
