<svg width="34" height="47" viewBox="0 0 34 47" fill="none" xmlns="http://www.w3.org/2000/svg">
<path d="M16.64 46.864C10.256 46.864 4.928 44.728 0.656 40.456L5.12 34.192C8.432 37.312 11.816 38.872 15.272 38.872C17.72 38.872 19.664 38.2 21.104 36.856C22.592 35.512 23.336 33.616 23.336 31.168C23.336 28.816 22.64 26.968 21.248 25.624C19.856 24.28 18.032 23.608 15.776 23.608C14.432 23.608 13.28 23.776 12.32 24.112C11.408 24.448 10.232 25.096 8.792 26.056L4.328 23.176L5.624 0.207997H31.112V8.488H14.12L13.328 17.92C15.2 17.104 17 16.696 18.728 16.696C22.904 16.696 26.36 17.92 29.096 20.368C31.832 22.768 33.2 26.296 33.2 30.952C33.2 34.216 32.432 37.048 30.896 39.448C29.408 41.848 27.392 43.696 24.848 44.992C22.352 46.24 19.616 46.864 16.64 46.864Z" fill="url(#paint0_linear)"/>
<defs>
<linearGradient id="paint0_linear" x1="-1" y1="19.5" x2="37" y2="19.5" gradientUnits="userSpaceOnUse">
<stop stop-color="#2871D7"/>
<stop offset="1" stop-color="#3269B6"/>
</linearGradient>
</defs>
</svg>
