<svg width="33" height="48" viewBox="0 0 33 48" fill="none" xmlns="http://www.w3.org/2000/svg">
<path d="M18.528 18.488C22.608 18.488 25.872 19.688 28.32 22.088C30.816 24.44 32.064 27.944 32.064 32.6C32.064 35.672 31.392 38.36 30.048 40.664C28.704 42.968 26.88 44.744 24.576 45.992C22.32 47.24 19.824 47.864 17.088 47.864C14.016 47.864 11.184 47.048 8.592 45.416C6 43.784 3.912 41.288 2.328 37.928C0.792 34.52 0.0240002 30.296 0.0240002 25.256C0.0240002 19.736 0.864 15.104 2.544 11.36C4.224 7.616 6.456 4.856 9.24 3.08C12.024 1.256 15.072 0.344 18.384 0.344C21.12 0.344 23.568 0.847999 25.728 1.856C27.888 2.864 29.76 4.16 31.344 5.744L26.16 11.648C25.296 10.688 24.192 9.896 22.848 9.272C21.552 8.648 20.256 8.336 18.96 8.336C16.08 8.336 13.752 9.536 11.976 11.936C10.2 14.336 9.216 18.224 9.024 23.6C10.224 22.016 11.712 20.768 13.488 19.856C15.264 18.944 16.944 18.488 18.528 18.488ZM16.944 40.448C18.72 40.448 20.184 39.776 21.336 38.432C22.488 37.088 23.064 35.144 23.064 32.6C23.064 30.2 22.488 28.424 21.336 27.272C20.184 26.072 18.624 25.472 16.656 25.472C15.312 25.472 13.992 25.856 12.696 26.624C11.448 27.392 10.32 28.616 9.312 30.296C9.744 33.848 10.632 36.44 11.976 38.072C13.32 39.656 14.976 40.448 16.944 40.448Z" fill="url(#paint0_linear)"/>
<defs>
<linearGradient id="paint0_linear" x1="-3" y1="20.5" x2="35" y2="20.5" gradientUnits="userSpaceOnUse">
<stop stop-color="#2871D7"/>
<stop offset="1" stop-color="#3269B6"/>
</linearGradient>
</defs>
</svg>
