<svg viewBox="0 0 264 294" fill="none" xmlns="http://www.w3.org/2000/svg">
<path d="M259.817 0H4.18277C1.87305 0 0 2.64333 0 5.90556V288.094C0 291.357 1.87305 294 4.18277 294H259.817C262.129 294 264 291.357 264 288.094V5.90556C264 2.64333 262.129 0 259.817 0ZM238.903 246.917L181.377 162.806C180.741 161.878 179.701 161.818 179.015 162.671L139.116 212.253L88.1177 123.597C87.7864 123.019 87.302 122.688 86.7541 122.705C86.2262 122.72 85.7335 123.078 85.4181 123.675L25.0966 237.954V35.4334H238.903V246.917Z" fill="#E0E0E0"/>
</svg>
