<svg width="125" height="120" viewBox="0 0 125 120" fill="none" xmlns="http://www.w3.org/2000/svg">
<path d="M123.02 0H1.98048C0.886859 0 0 1.07891 0 2.41043V117.59C0 118.921 0.886859 120 1.98048 120H123.02C124.114 120 125 118.921 125 117.59V2.41043C125 1.07891 124.114 0 123.02 0ZM113.117 100.783L85.8792 66.4513C85.5781 66.0728 85.0858 66.0483 84.761 66.3963L65.8692 86.6338L41.7224 50.4479C41.5655 50.2117 41.3362 50.0767 41.0767 50.0835C40.8268 50.0897 40.5935 50.2358 40.4442 50.4798L11.8829 97.124V14.4626H113.117V100.783Z" fill="#E0E0E0"/>
</svg>
