<svg viewBox="-10 0 416 286" fill="none" xmlns="http://www.w3.org/2000/svg">
<path d="M390.195 0H6.28171C2.81295 0 0 2.5714 0 5.74486V280.255C0 283.429 2.81295 286 6.28171 286H390.195C393.666 286 396.477 283.429 396.477 280.255V5.74486C396.477 2.5714 393.666 0 390.195 0ZM358.786 240.198L272.393 158.376C271.438 157.474 269.876 157.415 268.846 158.245L208.925 206.477L132.336 120.234C131.838 119.671 131.111 119.35 130.288 119.366C129.495 119.381 128.755 119.729 128.281 120.31L37.6903 231.479V34.4692H358.786V240.198Z" fill="#E0E0E0"/>
<path d="M276.486 81.3015C294.304 81.3015 308.771 73.8347 308.771 64.6226C308.771 55.4132 294.304 47.9424 276.486 47.9424C258.652 47.9424 244.202 55.4132 244.202 64.6226C244.202 73.8341 258.654 81.3015 276.486 81.3015Z" fill="#E0E0E0"/>
</svg>
