<svg width="15" height="26" viewBox="0 0 15 26" fill="#333333" xmlns="http://www.w3.org/2000/svg">
<path d="M0.407271 13.7624L11.7695 25.1243C12.0323 25.3873 12.3831 25.5322 12.7571 25.5322C13.1312 25.5322 13.482 25.3873 13.7448 25.1243L14.5815 24.2878C15.126 23.7427 15.126 22.8568 14.5815 22.3125L5.04041 12.7714L14.5921 3.21968C14.8549 2.95668 15 2.60608 15 2.23223C15 1.85797 14.8549 1.50737 14.5921 1.24416L13.7554 0.407825C13.4924 0.144825 13.1418 -6.48499e-05 12.7677 -6.48499e-05C12.3937 -6.48499e-05 12.0428 0.144825 11.7801 0.407825L0.407271 11.7802C0.143854 12.044 -0.000826836 12.3963 3.8147e-06 12.7708C-0.000826836 13.1467 0.143854 13.4987 0.407271 13.7624Z"/>
</svg>
