<svg width="15" height="26" viewBox="0 0 15 26" fill="none" xmlns="http://www.w3.org/2000/svg">
<path d="M14.5927 13.7624L3.23054 25.1243C2.96774 25.3873 2.61694 25.5322 2.24288 25.5322C1.86882 25.5322 1.51802 25.3873 1.25522 25.1243L0.418477 24.2878C-0.126 23.7427 -0.126 22.8568 0.418477 22.3125L9.95959 12.7714L0.407891 3.21968C0.145097 2.95668 0 2.60608 0 2.23223C0 1.85797 0.145097 1.50737 0.407891 1.24416L1.24464 0.407825C1.50764 0.144825 1.85824 -6.48499e-05 2.23229 -6.48499e-05C2.60635 -6.48499e-05 2.95716 0.144825 3.21995 0.407825L14.5927 11.7802C14.8561 12.044 15.0008 12.3963 15 12.7708C15.0008 13.1467 14.8561 13.4987 14.5927 13.7624Z" fill="white"/>
</svg>
