<svg width="14" height="27" viewBox="0 0 14 27" fill="none" xmlns="http://www.w3.org/2000/svg">
<path d="M7.83824 27H7.11047C5.44624 27 3.90871 26.4193 2.78172 25.3652C1.60755 24.2669 0.960938 22.7203 0.960938 21.0099L0.975975 5.83724C0.984627 2.45235 2.96608 0 5.68911 0H5.70044L5.99625 0.00102997C7.38238 0.00453186 8.62061 0.647438 9.48186 1.81151C10.2655 2.87052 10.6948 4.30856 10.6908 5.86073L10.655 20.1548C10.6525 21.0822 10.3685 21.9534 9.85471 22.6078C9.28967 23.3278 8.50422 23.7239 7.64214 23.7239C7.63987 23.7239 7.6374 23.7239 7.63513 23.7239C6.78953 23.7216 5.95525 23.3253 5.34572 22.636C4.74422 21.956 4.41442 21.0692 4.41669 20.1392L4.44532 8.71415C4.44656 8.26962 4.80725 7.91016 5.25158 7.91016H5.25364C5.69879 7.91119 6.05887 8.27312 6.05763 8.71827L6.029 20.1433C6.02776 20.6781 6.21398 21.184 6.55346 21.5679C6.85812 21.9124 7.25384 22.1105 7.63905 22.1114H7.64193C8.09862 22.1114 8.40761 21.8403 8.58641 21.6124C8.87913 21.2394 9.04104 20.7203 9.04248 20.1507L9.07853 5.85681C9.08141 4.64886 8.76439 3.55277 8.18575 2.77061C7.79622 2.2443 7.09934 1.61623 5.9913 1.61355L5.6957 1.61231C5.69323 1.61231 5.69076 1.61231 5.68829 1.61231C4.58519 1.61231 3.8877 2.23524 3.49651 2.75846C2.91396 3.53773 2.59138 4.63218 2.58849 5.84013L2.57325 21.0107C2.57325 23.5465 4.48158 25.3877 7.11047 25.3877H7.83824C10.4673 25.3877 12.3753 23.5465 12.3753 21.0099V8.35448C12.3753 7.90933 12.7364 7.54823 13.1815 7.54823C13.6267 7.54823 13.9878 7.90933 13.9878 8.35448V21.0099C13.9878 22.7203 13.3412 24.2669 12.1674 25.3652C11.0402 26.4193 9.50288 27 7.83824 27Z" fill="url(#paint0_linear)"/>
<defs>
<linearGradient id="paint0_linear" x1="0.960937" y1="13.5" x2="13.9878" y2="13.5" gradientUnits="userSpaceOnUse">
<stop stop-color="#2871D7"/>
<stop offset="1" stop-color="#3269B6"/>
</linearGradient>
</defs>
</svg>
