<svg viewBox="0 0 20 27" fill="#2871D7" xmlns="http://www.w3.org/2000/svg">
<path d="M17.378 11.98C18.3375 10.8949 17.5671 9.1853 16.1187 9.1853C15.1902 9.1853 14.4376 8.43267 14.4376 7.50424V4.06468C14.4376 1.82306 12.6204 0.00585938 10.3788 0.00585938C8.13716 0.00585938 6.31996 1.82306 6.31996 4.06468V7.50424C6.31996 8.43267 5.56733 9.1853 4.63891 9.1853C3.19044 9.1853 2.42007 10.8949 3.37962 11.98L7.18202 16.2797C8.88048 18.2004 11.8771 18.2004 13.5755 16.2797L17.378 11.98ZM2.43811 22.9545C1.59317 22.9545 0.908203 23.6394 0.908203 24.4844C0.908203 25.3293 1.59317 26.0143 2.43811 26.0143H18.3195C19.1644 26.0143 19.8494 25.3293 19.8494 24.4844C19.8494 23.6394 19.1644 22.9545 18.3195 22.9545H2.43811Z"/>
</svg>
