<svg width="37" height="37" viewBox="0 0 37 37" fill="none" xmlns="http://www.w3.org/2000/svg">
<path d="M36.875 31.7708C36.875 34.5901 34.5901 36.875 31.7708 36.875H5.22917C2.40991 36.875 0.125 34.5901 0.125 31.7708V5.22917C0.125 2.40991 2.40991 0.125 5.22917 0.125H31.7708C34.5901 0.125 36.875 2.40991 36.875 5.22917V31.7708Z" fill="#3F51B5"/>
<path d="M29.0833 19.5208H25.6459V32.7916H20.5417V19.5208H17.4792V15.4374H20.5417V12.9771C20.5457 9.39616 22.0331 7.27075 26.252 7.27075H29.7293V11.3541H27.3965C25.7536 11.3541 25.6459 11.9682 25.6459 13.1126V15.4374H29.7293L29.0833 19.5208Z" fill="white"/>
</svg>
