<svg width="47" height="64" viewBox="0 0 47 64" fill="none" xmlns="http://www.w3.org/2000/svg">
<path d="M23.5 0C10.542 0 0 10.3978 0 23.1783C0 39.0393 21.0302 62.3242 21.9256 63.3077C22.7666 64.2316 24.2349 64.23 25.0744 63.3077C25.9698 62.3242 47 39.0393 47 23.1783C46.9997 10.3978 36.4578 0 23.5 0ZM23.5 34.8399C16.9805 34.8399 11.6767 29.6085 11.6767 23.1783C11.6767 16.748 16.9806 11.5168 23.5 11.5168C30.0194 11.5168 35.3232 16.7481 35.3232 23.1784C35.3232 29.6087 30.0194 34.8399 23.5 34.8399Z" fill="url(#paint0_linear)"/>
<defs>
<linearGradient id="paint0_linear" x1="-3.50177e-07" y1="32" x2="47" y2="32" gradientUnits="userSpaceOnUse">
<stop stop-color="#2871D7"/>
<stop offset="1" stop-color="#3269B6"/>
</linearGradient>
</defs>
</svg>
