<svg viewBox="0 0 30 33" fill="#2871D7" xmlns="http://www.w3.org/2000/svg">
<path d="M28.3032 19.6235C28.3067 18.6276 28.4632 17.6171 28.7755 16.6714C28.9449 16.1582 29.0297 15.6049 29.0297 15.0115C29.0297 13.9457 28.6848 13.0235 27.9975 12.2443C27.3087 11.4651 26.4932 11.0757 25.5507 11.0757H21.0432C20.7829 11.0757 20.5885 10.8293 20.6751 10.5839C20.7229 10.4473 20.7901 10.2968 20.8744 10.1328C20.9587 9.9688 21.0193 9.84575 21.0554 9.76391C21.2728 9.29959 21.4393 8.91675 21.5542 8.61639C21.6689 8.31545 21.7831 7.90569 21.8983 7.38644C22.0133 6.86749 22.0704 6.34803 22.0704 5.82879C22.0704 5.50101 22.0669 5.23432 22.0612 5.0295C22.0555 4.82455 22.0248 4.51701 21.9709 4.10703C21.9161 3.69727 21.8435 3.35563 21.7531 3.08247C21.6623 2.80925 21.5172 2.50157 21.3182 2.16022C21.1187 1.81822 20.8772 1.54191 20.5929 1.32999C20.3088 1.11821 19.9464 0.940612 19.5054 0.797251C19.0639 0.653747 18.5658 0.582031 18.0096 0.582031C17.6954 0.582031 17.4238 0.711896 17.194 0.971552C16.9524 1.24478 16.7466 1.58634 16.5776 1.99611C16.4084 2.40609 16.2905 2.76137 16.2239 3.06209C16.1575 3.36266 16.0819 3.77953 15.9976 4.31227C15.8885 4.88643 15.8073 5.2995 15.7526 5.55226C15.6983 5.80503 15.5923 6.13633 15.4353 6.54617C15.2781 6.95629 15.091 7.284 14.8734 7.53009C14.4748 7.98092 13.8646 8.80081 13.0428 9.98947C12.4505 10.8638 11.8404 11.6905 11.2121 12.4694C10.5836 13.2484 10.1245 13.6514 9.83458 13.6788C9.53271 13.7061 9.27287 13.8461 9.05531 14.099C8.83775 14.3518 8.729 14.6491 8.729 14.9906V28.1285C8.729 28.4837 8.84372 28.7876 9.07334 29.0404C9.30284 29.2934 9.57474 29.4266 9.88892 29.4403C10.3118 29.454 11.2664 29.7543 12.7528 30.3424C13.6831 30.6971 14.411 30.9674 14.9366 31.1516C15.4621 31.3358 16.1967 31.5341 17.1385 31.7461C18.0812 31.9579 18.951 32.064 19.7483 32.064H20.0566H21.4342H22.0865C23.694 32.0367 24.8837 31.5037 25.6573 30.4655C25.9914 30.0158 26.2335 29.4994 26.3836 28.9162C26.7294 27.5722 27.2101 26.1808 27.5241 24.829C27.537 24.7767 27.5491 24.7245 27.5603 24.6725C27.8646 23.2667 28.1375 21.7546 28.2814 20.3234C28.3043 20.0956 28.3116 19.8623 28.3032 19.6235Z"/>
<path d="M6.40991 13.6973H1.19002C0.875644 13.6973 0.603742 13.8271 0.374185 14.0868C0.144627 14.3463 0.0297852 14.6538 0.0297852 15.009V28.127C0.0297852 28.4818 0.144627 28.7894 0.374248 29.0493C0.603996 29.3085 0.875898 29.4384 1.19008 29.4384H6.40991C6.72403 29.4384 6.9958 29.3085 7.22549 29.0493C7.45504 28.7894 7.56982 28.4819 7.56982 28.127V15.009C7.56982 14.6538 7.45498 14.3464 7.22549 14.0868C6.99587 13.8271 6.72409 13.6973 6.40991 13.6973ZM4.32542 26.4356C4.09586 26.6884 3.82402 26.8147 3.50984 26.8147C3.18354 26.8147 2.90859 26.6884 2.68519 26.4356C2.46166 26.1829 2.34993 25.8721 2.34993 25.5031C2.34993 25.1479 2.4616 24.8404 2.68519 24.5808C2.90865 24.3212 3.18354 24.1912 3.50984 24.1912C3.82402 24.1912 4.09586 24.3212 4.32542 24.5808C4.55504 24.8403 4.66988 25.1478 4.66988 25.5031C4.66988 25.8721 4.55529 26.1828 4.32542 26.4356Z"/>
</svg>
