<svg width="50" height="50" viewBox="0 0 50 50" fill="none" xmlns="http://www.w3.org/2000/svg">
<circle cx="25" cy="25" r="25" fill="url(#paint0_linear)"/>
<path d="M17.4073 23.7699L28.7695 12.4079C29.0323 12.1449 29.3831 12 29.7571 12C30.1312 12 30.482 12.1449 30.7448 12.4079L31.5815 13.2444C32.126 13.7895 32.126 14.6755 31.5815 15.2197L22.0404 24.7609L31.5921 34.3125C31.8549 34.5756 32 34.9262 32 35.3C32 35.6743 31.8549 36.0249 31.5921 36.2881L30.7554 37.1244C30.4924 37.3874 30.1418 37.5323 29.7677 37.5323C29.3937 37.5323 29.0428 37.3874 28.7801 37.1244L17.4073 25.752C17.1439 25.4882 16.9992 25.1359 17 24.7615C16.9992 24.3856 17.1439 24.0335 17.4073 23.7699Z" fill="white"/>
<defs>
<linearGradient id="paint0_linear" x1="-3.72529e-07" y1="25" x2="50" y2="25" gradientUnits="userSpaceOnUse">
<stop stop-color="#2871D7"/>
<stop offset="1" stop-color="#3269B6"/>
</linearGradient>
</defs>
</svg>
