<svg width="50" height="50" viewBox="0 0 50 50" fill="none" xmlns="http://www.w3.org/2000/svg">
<circle r="25" transform="matrix(-1 0 0 1 25 25)" fill="url(#paint0_linear)"/>
<path d="M32.5927 23.7699L21.2305 12.4079C20.9677 12.1449 20.6169 12 20.2429 12C19.8688 12 19.518 12.1449 19.2552 12.4079L18.4185 13.2444C17.874 13.7895 17.874 14.6755 18.4185 15.2197L27.9596 24.7609L18.4079 34.3125C18.1451 34.5756 18 34.9262 18 35.3C18 35.6743 18.1451 36.0249 18.4079 36.2881L19.2446 37.1244C19.5076 37.3874 19.8582 37.5323 20.2323 37.5323C20.6063 37.5323 20.9572 37.3874 21.2199 37.1244L32.5927 25.752C32.8561 25.4882 33.0008 25.1359 33 24.7615C33.0008 24.3856 32.8561 24.0335 32.5927 23.7699Z" fill="white"/>
<defs>
<linearGradient id="paint0_linear" x1="-3.72529e-07" y1="25" x2="50" y2="25" gradientUnits="userSpaceOnUse">
<stop stop-color="#2871D7"/>
<stop offset="1" stop-color="#3269B6"/>
</linearGradient>
</defs>
</svg>
