<svg width="92" height="92" viewBox="0 0 92 92" fill="none" xmlns="http://www.w3.org/2000/svg">
<path d="M19.7143 59.1429C19.7143 52.5714 19.7143 26.2857 19.7143 26.2857C19.7143 26.2857 19.7307 24.8071 20.4996 23C13.6686 23 6.57143 23 6.57143 23C6.57143 23 0 23 0 29.5714V52.5714C0 59.1429 6.57143 59.1429 6.57143 59.1429V92H26.2857V65.7143C26.2857 65.7143 19.7143 65.7143 19.7143 59.1429Z" fill="url(#paint0_linear)"/>
<path d="M19.7143 19.7143C21.4229 19.7143 23.0033 19.2411 24.403 18.4789C24.5969 18.3606 24.8137 18.2554 25.0207 18.1404C27.7512 16.3891 29.5715 13.3433 29.5715 9.85714C29.5715 4.41271 25.1587 0 19.7143 0C14.2699 0 9.85718 4.41271 9.85718 9.85714C9.85718 15.3016 14.2699 19.7143 19.7143 19.7143Z" fill="url(#paint1_linear)"/>
<path d="M85.4286 23H71.5038C72.2694 24.8071 72.2858 26.2857 72.2858 26.2857C72.2858 26.2857 72.2858 52.5714 72.2858 59.1429C72.2858 65.7143 65.7144 65.7143 65.7144 65.7143V92H85.4286V59.1429C85.4286 59.1429 92.0001 59.1429 92.0001 52.5714C92.0001 46 92.0001 29.5714 92.0001 29.5714C92.0001 29.5714 92.0001 23 85.4286 23Z" fill="url(#paint2_linear)"/>
<path d="M66.9627 18.1339C67.1763 18.2489 67.403 18.3573 67.6002 18.4789C68.9999 19.2411 70.577 19.7143 72.2856 19.7143C77.73 19.7143 82.1428 15.3016 82.1428 9.85714C82.1428 4.41271 77.73 0 72.2856 0C66.8412 0 62.4285 4.41271 62.4285 9.85714C62.4285 13.3367 64.2422 16.3793 66.9627 18.1339Z" fill="url(#paint3_linear)"/>
<path d="M46 19.7143C51.4439 19.7143 55.8571 15.3011 55.8571 9.85714C55.8571 4.41319 51.4439 0 46 0C40.556 0 36.1428 4.41319 36.1428 9.85714C36.1428 15.3011 40.556 19.7143 46 19.7143Z" fill="url(#paint4_linear)"/>
<path d="M65.7142 29.5714C65.7142 29.5714 65.7142 23 59.1428 23C57.4999 23 32.8571 23 32.8571 23C32.8571 23 26.2856 23 26.2856 29.5714V52.5714C26.2856 59.1429 32.8571 59.1429 32.8571 59.1429V92H59.1428V59.1429C59.1428 59.1429 65.7142 59.1429 65.7142 52.5714C65.7142 46 65.7142 29.5714 65.7142 29.5714Z" fill="url(#paint5_linear)"/>
<defs>
<linearGradient id="paint0_linear" x1="-1.95844e-07" y1="57.5" x2="26.2857" y2="57.5" gradientUnits="userSpaceOnUse">
<stop stop-color="#2871D7"/>
<stop offset="1" stop-color="#3269B6"/>
</linearGradient>
<linearGradient id="paint1_linear" x1="9.85718" y1="9.85715" x2="29.5715" y2="9.85715" gradientUnits="userSpaceOnUse">
<stop stop-color="#2871D7"/>
<stop offset="1" stop-color="#3269B6"/>
</linearGradient>
<linearGradient id="paint2_linear" x1="65.7144" y1="57.5" x2="92.0001" y2="57.5" gradientUnits="userSpaceOnUse">
<stop stop-color="#2871D7"/>
<stop offset="1" stop-color="#3269B6"/>
</linearGradient>
<linearGradient id="paint3_linear" x1="62.4285" y1="9.85715" x2="82.1428" y2="9.85715" gradientUnits="userSpaceOnUse">
<stop stop-color="#2871D7"/>
<stop offset="1" stop-color="#3269B6"/>
</linearGradient>
<linearGradient id="paint4_linear" x1="36.1428" y1="9.85715" x2="55.8571" y2="9.85715" gradientUnits="userSpaceOnUse">
<stop stop-color="#2871D7"/>
<stop offset="1" stop-color="#3269B6"/>
</linearGradient>
<linearGradient id="paint5_linear" x1="26.2856" y1="57.5" x2="65.7142" y2="57.5" gradientUnits="userSpaceOnUse">
<stop stop-color="#2871D7"/>
<stop offset="1" stop-color="#3269B6"/>
</linearGradient>
</defs>
</svg>
