<svg width="147" height="147" viewBox="0 0 147 147" fill="none" xmlns="http://www.w3.org/2000/svg">
<path d="M144.55 0H34.3003C32.9473 0 31.8503 1.09699 31.8503 2.45V39.2H36.7503V4.9H142.1V139.65C142.124 140.938 141.13 142.018 139.844 142.1C139.633 142.1 139.422 142.083 139.212 142.078C138.778 142.066 138.344 142.056 137.918 142.012C137.881 142.012 137.847 142.012 137.81 141.997C129.809 141.122 123.488 134.808 122.606 126.807C122.606 126.773 122.593 126.736 122.588 126.702C122.529 126.12 122.5 125.535 122.5 124.95V120.05C122.5 118.697 121.403 117.6 120.05 117.6H36.7503V73.5H31.8503V117.6H12.2503C10.8973 117.6 9.80029 118.697 9.80029 120.05V124.95C9.81377 137.122 19.6781 146.986 31.8503 147H139.895C143.871 146.896 147.031 143.627 147 139.65V2.45C147 1.09699 145.903 0 144.55 0ZM31.8503 142.1C22.3832 142.089 14.711 134.417 14.7003 124.95V122.5H117.6V124.95C117.604 125.758 117.65 126.565 117.74 127.368C117.762 127.581 117.804 127.787 117.833 127.998C117.914 128.591 118.012 129.181 118.142 129.762C118.186 129.965 118.242 130.166 118.294 130.369C118.443 130.96 118.612 131.54 118.808 132.114C118.864 132.278 118.923 132.44 118.984 132.604C119.207 133.211 119.46 133.804 119.737 134.39C119.795 134.51 119.849 134.635 119.908 134.745C120.215 135.366 120.552 135.969 120.92 136.556C120.969 136.634 121.013 136.715 121.062 136.801C121.461 137.426 121.893 138.031 122.353 138.614L122.432 138.719C122.966 139.391 123.539 140.031 124.147 140.637C124.674 141.16 125.221 141.65 125.788 142.107L31.8503 142.1Z" fill="#BDBDBD"/>
<path d="M80.85 68.5996C81.4998 68.5996 82.1228 68.3411 82.5821 67.8818L92.3821 58.0818C93.3385 57.125 93.3385 55.5742 92.3821 54.6175L82.5821 44.8175C82.1228 44.3581 81.4998 44.0996 80.85 44.0996H12.25C5.48463 44.0996 0 49.5842 0 56.3496C0 63.115 5.48463 68.5996 12.25 68.5996H80.85ZM80.2179 49.3818L87.1857 56.3496L80.2179 63.3174L78.4759 56.3496L80.2179 49.3818ZM19.6 48.9996H75.264L74.039 53.8996H24.5V58.7996H74.039L75.264 63.6996H19.6V48.9996ZM4.9 56.3496C4.9 52.2903 8.19065 48.9996 12.25 48.9996H14.7V63.6996H12.25C8.19065 63.6996 4.9 60.4089 4.9 56.3496Z" fill="#BDBDBD"/>
<path d="M56.3501 105.351H129.85C131.203 105.351 132.3 104.254 132.3 102.901V29.4006C132.3 28.0475 131.203 26.9509 129.85 26.9512C129.2 26.9512 128.577 27.2093 128.118 27.6684L54.618 101.168C53.6613 102.125 53.6616 103.677 54.6186 104.633C55.078 105.092 55.7006 105.351 56.3501 105.351ZM127.4 35.3149V41.6506H122.5V46.5506H127.4V51.4506H122.5V56.3506H127.4V61.2505H122.5V66.1506H127.4V71.0505H122.5V75.9505H127.4V80.8505H122.5V85.7505H127.4V90.6505H122.5V95.5505H127.4V100.451H122.5V95.5505H117.6V100.451H112.7V95.5505H107.8V100.451H102.9V95.5505H98.0001V100.451H93.1001V95.5505H88.2001V100.451H83.3001V95.5505H78.4001V100.451H73.5001V95.5505H68.6001V100.451H62.2644L127.4 35.3149Z" fill="#BDBDBD"/>
<path d="M91.8384 90.6506H115.15C116.503 90.6506 117.6 89.5536 117.6 88.2006V64.8888C117.6 63.5358 116.503 62.4391 115.149 62.4395C114.5 62.4395 113.877 62.6976 113.418 63.1567L90.1062 86.4684C89.1495 87.4255 89.1498 88.9766 90.1068 89.9333C90.5662 90.3924 91.1888 90.6506 91.8384 90.6506ZM112.7 70.8056V85.7506H97.7551L112.7 70.8056Z" fill="#BDBDBD"/>
<path d="M112.7 14.6992H63.6997V19.5992H112.7V14.6992Z" fill="#BDBDBD"/>
<path d="M120.05 24.5H56.35V29.4H120.05V24.5Z" fill="#BDBDBD"/>
<path d="M56.3498 75.9492H41.6498V80.8492H56.3498V75.9492Z" fill="#BDBDBD"/>
<path d="M51.4498 85.75H41.6498V90.65H51.4498V85.75Z" fill="#BDBDBD"/>
</svg>
