<svg width="133" height="161" viewBox="0 0 133 161" fill="none" xmlns="http://www.w3.org/2000/svg">
<path d="M99.6647 116.094C96.8843 114.208 93.4537 113.262 90.1369 112.346C89.413 112.147 88.6917 111.948 87.985 111.74C83.9271 110.547 81.325 108.193 81.024 105.441C80.7805 103.216 82.1202 101.069 84.6061 99.6994C85.1316 99.4102 85.7166 99.1941 86.343 99.0412V103.981C86.343 105.814 87.8296 107.302 89.6639 107.302C91.4977 107.302 92.9849 105.814 92.9849 103.981V99.2841C94.9235 99.762 96.812 100.533 98.3587 101.468C99.9278 102.418 101.969 101.916 102.919 100.346C103.869 98.7772 103.367 96.7356 101.798 95.7857C99.3403 94.2982 96.2286 93.0762 92.9852 92.4875V90.1002C92.9852 88.2665 91.498 86.7793 89.6643 86.7793C87.8302 86.7793 86.3433 88.2665 86.3433 90.1002V92.2864C84.6011 92.532 82.9253 93.0426 81.4016 93.8819C76.5599 96.55 73.8856 101.255 74.422 106.163C75.0241 111.671 79.3942 116.137 86.1123 118.112C86.188 118.134 86.2667 118.156 86.343 118.178V133.814C83.5949 133.356 81.321 132.192 80.5925 130.789C79.7479 129.162 77.7438 128.527 76.1159 129.371C74.488 130.216 73.8529 132.22 74.6972 133.848C76.7168 137.741 81.4022 139.934 86.3427 140.494V143.96C86.3427 145.794 87.8293 147.281 89.6636 147.281C91.4974 147.281 92.9846 145.794 92.9846 143.96V140.254C93.6732 140.121 94.3454 139.955 94.9901 139.751C100.199 138.11 104.073 133.578 104.86 128.206C105.576 123.313 103.634 118.785 99.6647 116.094ZM98.2877 127.244C97.868 130.113 95.7902 132.536 92.9939 133.417C92.9911 133.418 92.988 133.418 92.9849 133.42V120.157C94.1016 120.569 95.1168 121.035 95.9375 121.591C98.5464 123.361 98.4505 126.134 98.2877 127.244Z" fill="#BDBDBD"/>
<path d="M89.6641 73.8594C88.5468 73.8594 87.4382 73.9023 86.342 73.9858V16.5748C86.342 13.1079 83.9124 8.21598 72.34 4.59929C64.5014 2.15007 54.1423 0.800781 43.1711 0.800781C32.2 0.800781 21.8412 2.15007 14.0023 4.59929C2.42929 8.21598 0 13.1079 0 16.5748V117.03C0 120.497 2.42929 125.389 14.0023 129.005C21.8412 131.455 32.2003 132.804 43.1711 132.804C45.2623 132.804 47.3535 132.752 49.4179 132.652C55.6918 148.757 71.3656 160.2 89.6638 160.2C113.468 160.2 132.834 140.835 132.834 117.03C132.835 93.2258 113.469 73.8594 89.6641 73.8594ZM15.9832 10.9385C23.1982 8.6839 32.8534 7.44233 43.1711 7.44233C53.4882 7.44233 63.144 8.6839 70.359 10.9385C77.9841 13.3214 79.7004 15.87 79.7004 16.5748C79.7004 17.28 77.9841 19.8282 70.359 22.2114C63.144 24.4657 53.4888 25.7073 43.1711 25.7073C32.8534 25.7073 23.1979 24.4657 15.9832 22.2111C8.35758 19.8282 6.64155 17.28 6.64155 16.5748C6.64155 15.8703 8.35758 13.3217 15.9832 10.9385ZM6.64155 25.4753C8.54407 26.556 10.9531 27.5977 14.0023 28.5503C21.8412 30.9998 32.2003 32.3488 43.1711 32.3488C54.142 32.3488 64.5014 30.9995 72.34 28.5506C75.3892 27.598 77.7979 26.5563 79.7004 25.4757V33.3183C79.7004 34.0228 77.9841 36.5714 70.359 38.9546C63.1437 41.2089 53.4888 42.4505 43.1711 42.4505C38.3829 42.4505 33.708 42.1809 29.2763 41.6497C27.4563 41.4296 25.8019 42.7307 25.584 44.5516C25.3657 46.3726 26.6649 48.026 28.4858 48.244C33.1788 48.8065 38.1195 49.092 43.1715 49.092C54.1426 49.092 64.5017 47.7427 72.34 45.2935C75.3892 44.3408 77.7979 43.2991 79.7004 42.2188V66.8028C79.7004 67.508 77.9841 70.0562 70.359 72.4394C63.144 74.694 53.4888 75.9353 43.1711 75.9353C32.8534 75.9353 23.1976 74.694 15.9832 72.4394C8.35758 70.0565 6.64124 67.508 6.64124 66.8028V58.9614C8.54376 60.0417 10.9528 61.0837 14.0019 62.0364C21.8409 64.4859 32.2 65.8349 43.1708 65.8349C49.7068 65.8349 55.9661 65.3657 61.7748 64.4401C63.5864 64.1519 64.8209 62.4495 64.5322 60.6385C64.2437 58.8269 62.537 57.5934 60.7303 57.8814C55.3428 58.7394 49.271 59.193 43.1708 59.193C32.8538 59.193 23.1976 57.9515 15.9829 55.6968C8.35727 53.3139 6.64092 50.7657 6.64092 50.0609V25.4753H6.64155ZM43.1711 126.163C32.8541 126.163 23.1979 124.921 15.9832 122.666C8.35758 120.284 6.64124 117.735 6.64124 117.03V109.188C8.54376 110.268 10.9528 111.31 14.0019 112.263C21.8405 114.713 32.2 116.062 43.1708 116.062C44.282 116.062 45.395 116.046 46.5039 116.018C46.4961 116.356 46.4918 116.692 46.4918 117.03C46.4918 117.408 46.4971 117.785 46.5067 118.16C46.5098 118.277 46.5157 118.394 46.5201 118.512C46.5288 118.77 46.5372 119.029 46.5506 119.286C46.5578 119.427 46.569 119.569 46.5774 119.71C46.5917 119.941 46.6054 120.174 46.6228 120.404C46.635 120.56 46.6509 120.716 46.6646 120.872C46.6839 121.087 46.7016 121.302 46.724 121.516C46.7418 121.685 46.7626 121.853 46.7822 122.021C46.8053 122.22 46.8274 122.419 46.8529 122.617C46.8766 122.801 46.9036 122.984 46.9298 123.167C46.9553 123.347 46.9802 123.527 47.0083 123.706C47.0397 123.906 47.0739 124.106 47.1082 124.307C47.135 124.465 47.1617 124.624 47.1901 124.783C47.2299 125.002 47.2732 125.22 47.3162 125.439C47.3426 125.573 47.3691 125.708 47.3968 125.843C47.4133 125.924 47.4282 126.006 47.446 126.088C46.0285 126.138 44.5998 126.163 43.1711 126.163ZM50.3142 99.2739C50.313 99.2774 50.3111 99.2799 50.3099 99.2833C50.1931 99.5426 50.0795 99.8029 49.9674 100.065C49.9357 100.139 49.9027 100.213 49.8715 100.288C49.8199 100.41 49.7707 100.534 49.7202 100.657C48.5814 103.425 47.7203 106.335 47.1761 109.353C45.8458 109.396 44.507 109.42 43.1708 109.42C32.8531 109.42 23.1976 108.179 15.9829 105.924C8.35727 103.541 6.64092 100.993 6.64092 100.288V75.703H6.64124C8.54376 76.7833 10.9528 77.8253 14.0019 78.778C21.8405 81.2272 32.1997 82.5765 43.1708 82.5765C51.9135 82.5765 60.263 81.7176 67.2623 80.1301C63.3641 82.4993 59.8309 85.4871 56.8238 89.0067C55.9552 90.0238 55.1389 91.0779 54.373 92.1642C50.7616 92.5041 46.993 92.6775 43.1708 92.6775C38.3826 92.6775 33.7077 92.4079 29.276 91.8768C27.456 91.6582 25.8016 92.9574 25.5836 94.7787C25.3654 96.5996 26.6646 98.2531 28.4855 98.471C33.1785 99.0336 38.1192 99.3191 43.1711 99.3191C45.6054 99.3191 48.0157 99.2441 50.3886 99.1124C50.3641 99.1665 50.3388 99.2201 50.3142 99.2739ZM89.6641 153.559C73.3036 153.559 59.4209 142.748 54.784 127.896C54.7276 127.716 54.675 127.534 54.6214 127.353C54.5318 127.049 54.4462 126.743 54.364 126.436C54.3092 126.23 54.256 126.023 54.2046 125.817C54.1626 125.646 54.119 125.476 54.0791 125.304C53.9985 124.955 53.9231 124.605 53.8522 124.254C53.8232 124.11 53.7964 123.966 53.769 123.822C53.7114 123.517 53.6576 123.21 53.6081 122.904C53.5925 122.808 53.5751 122.713 53.5604 122.616C53.5001 122.226 53.4477 121.833 53.4004 121.44C53.3867 121.326 53.374 121.212 53.3612 121.098C53.3192 120.717 53.2809 120.335 53.2507 119.953C53.2479 119.919 53.2448 119.886 53.242 119.853C53.2102 119.439 53.1875 119.024 53.1697 118.608C53.1651 118.504 53.1613 118.399 53.1579 118.295C53.1433 117.874 53.1336 117.453 53.1336 117.03C53.1336 116.524 53.1473 116.021 53.1676 115.519C53.171 115.437 53.1732 115.354 53.1769 115.272C53.1981 114.82 53.2298 114.37 53.2672 113.922C53.279 113.781 53.2911 113.64 53.3048 113.499C53.3428 113.102 53.3877 112.706 53.4378 112.312C53.4655 112.098 53.4963 111.887 53.5275 111.675C53.5558 111.48 53.5875 111.287 53.6187 111.093C53.6962 110.622 53.7796 110.153 53.8755 109.688C53.8764 109.682 53.878 109.677 53.8792 109.671C56.6171 96.3391 66.6415 85.6344 79.5908 81.9143C79.6441 81.8994 79.6964 81.8838 79.7493 81.8689C80.0488 81.7845 80.3508 81.7039 80.6537 81.6263C80.9993 81.5395 81.347 81.4557 81.6973 81.3782C81.8308 81.3483 81.9653 81.3188 82.1001 81.2901C82.5581 81.1942 83.0195 81.1049 83.4843 81.0258C85.4936 80.6821 87.5583 80.5003 89.6648 80.5003C109.806 80.5003 126.193 96.8876 126.193 117.03C126.193 137.172 109.806 153.559 89.6641 153.559Z" fill="#BDBDBD"/>
<path d="M16.7128 46.07C17.2274 46.2057 17.7542 46.3377 18.2906 46.465C18.549 46.5267 18.8077 46.5556 19.0621 46.5556C20.5645 46.5556 21.9269 45.5286 22.2899 44.0024C22.7143 42.2185 21.6122 40.4278 19.8279 40.0034C19.3448 39.8886 18.8706 39.77 18.407 39.6479C16.6322 39.1797 14.8162 40.2385 14.3489 42.0118C13.8807 43.7855 14.9392 45.6024 16.7128 46.07Z" fill="#BDBDBD"/>
<path d="M70.6665 62.3949C70.9803 62.3949 71.3001 62.3497 71.6161 62.2557C72.2692 62.0611 72.9274 61.8516 73.5724 61.6331C75.3093 61.0443 76.2402 59.1586 75.6512 57.4214C75.0625 55.6845 73.1767 54.754 71.4395 55.3427C70.8726 55.5351 70.2942 55.7194 69.7194 55.89C67.9617 56.4137 66.9614 58.2629 67.4847 60.0207C67.915 61.4631 69.2353 62.3949 70.6665 62.3949Z" fill="#BDBDBD"/>
<path d="M19.8253 90.23C19.3415 90.1151 18.8661 89.9965 18.4019 89.8748C16.6301 89.4106 14.8123 90.4697 14.3468 92.2443C13.8817 94.0179 14.9424 95.8336 16.7163 96.299C17.2307 96.4338 17.7565 96.5649 18.292 96.6922C18.5498 96.7532 18.8078 96.7825 19.0613 96.7825C20.5647 96.7825 21.927 95.7545 22.2894 94.2277C22.7131 92.4432 21.6098 90.6531 19.8253 90.23Z" fill="#BDBDBD"/>
</svg>
