<svg width="155" height="155" viewBox="0 0 155 155" fill="none" xmlns="http://www.w3.org/2000/svg">
<path d="M147.5 5H124.54C123.505 2.09717 120.754 0 117.5 0H82.5C79.2456 0 76.4954 2.09717 75.4602 5H52.5C48.3655 5 45 8.36548 45 12.5V45H36.4856C33.4424 45 30.4395 45.7971 27.8003 47.3071L14.3347 55H0V100H16.7419L27.3328 107.061C30.2173 108.986 33.5754 110 37.0398 110H45V147.5C45 151.635 48.3655 155 52.5 155H147.5C151.635 155 155 151.635 155 147.5V12.5C155 8.36548 151.635 5 147.5 5ZM60 65H65C70.5151 65 75 60.5151 75 55C75 49.4849 70.5151 45 65 45H60V20H75.4602C76.4954 22.9028 79.2456 25 82.5 25H117.5C120.754 25 123.505 22.9028 124.54 20H140V140H60V65ZM80 7.5C80 6.12061 81.1206 5 82.5 5H117.5C118.879 5 120 6.12061 120 7.5V17.5C120 18.8794 118.879 20 117.5 20H82.5C81.1206 20 80 18.8794 80 17.5V7.5ZM50 12.5C50 11.1206 51.1206 10 52.5 10H75V15H55V45H50V12.5ZM37.0398 105C34.5654 105 32.168 104.275 30.1074 102.9L18.2581 95H5V60H15.6653L30.282 51.6479C32.168 50.5701 34.3127 50 36.4856 50H65C67.7576 50 70 52.2424 70 55C70 57.7576 67.7576 60 65 60H35V62.5C35 69.3921 29.3921 75 22.5 75V80C31.3025 80 38.6047 73.4705 39.823 65H45V105H37.0398ZM150 147.5C150 148.879 148.879 150 147.5 150H52.5C51.1206 150 50 148.879 50 147.5V65H55V145H145V15H125V10H147.5C148.879 10 150 11.1206 150 12.5V147.5Z" fill="#BDBDBD"/>
<path d="M85.0002 10H90.0002V15H85.0002V10Z" fill="#BDBDBD"/>
<path d="M110 10H115V15H110V10Z" fill="#BDBDBD"/>
<path d="M118.432 115.522L109.995 113.113L109.993 111.844C114.525 108.68 117.5 103.435 117.5 97.5V92.5C117.5 82.8528 109.647 75 99.9999 75C90.3527 75 82.4999 82.8528 82.4999 92.5V97.5C82.4999 103.43 85.4723 108.673 89.9999 111.84V113.115L81.5648 115.522C76.2279 117.05 72.4999 121.992 72.4999 127.545V135H127.5V127.545C127.5 121.992 123.772 117.05 118.432 115.522ZM87.4999 97.5V92.5C87.4999 85.6079 93.1078 80 99.9999 80C106.892 80 112.5 85.6079 112.5 92.5V97.5C112.5 104.392 106.892 110 99.9999 110C93.1078 110 87.4999 104.392 87.4999 97.5ZM104.912 114.285L99.9999 120.833L95.0878 114.285C96.6478 114.742 98.2946 115 99.9999 115C101.705 115 103.352 114.742 104.912 114.285ZM122.5 130H77.4999V127.545C77.4999 124.215 79.7374 121.248 82.9393 120.332L91.5319 117.877L99.9999 129.167L108.468 117.877L117.06 120.332C120.262 121.248 122.5 124.215 122.5 127.545V130Z" fill="#BDBDBD"/>
<path d="M64.9997 30H69.9997V35H64.9997V30Z" fill="#BDBDBD"/>
<path d="M74.9999 30H135V35H74.9999V30Z" fill="#BDBDBD"/>
<path d="M80.0001 40H135V45H80.0001V40Z" fill="#BDBDBD"/>
<path d="M80.0001 50H135V55H80.0001V50Z" fill="#BDBDBD"/>
<path d="M130 60H135V65H130V60Z" fill="#BDBDBD"/>
<path d="M80.0001 60H125V65H80.0001V60Z" fill="#BDBDBD"/>
</svg>
