<svg width="50" height="65" viewBox="0 0 50 65" fill="#fff" xmlns="http://www.w3.org/2000/svg">
<path d="M45.6384 45.019C44.2257 43.4613 42.5233 42.7006 40.3498 42.7006H35.7702L32.7636 39.8029C30.5539 41.614 27.8734 42.6645 24.9753 42.6645C22.2586 42.6645 19.6867 41.7227 17.5857 40.0926L14.905 42.6645H10.1388C7.71183 42.6645 5.82819 43.4977 4.34301 45.2003C0.032373 50.1991 0.75685 60.8853 1.08286 64.1816H49.333C49.5868 60.8488 50.0215 49.9092 45.6384 45.019Z"/>
<path d="M12.4201 22.3428C11.5508 23.0673 10.9712 24.2264 10.9712 25.5667C10.9712 27.559 12.2753 29.1891 13.9415 29.4789C14.3038 32.4855 15.5354 35.1298 17.3828 37.0859C17.7812 37.4843 18.1796 37.8828 18.6143 38.2088C19.1578 38.6435 19.7372 39.0058 20.3531 39.3318C21.7296 40.0561 23.2508 40.4546 24.881 40.4546C26.5111 40.4546 28.0326 40.0561 29.409 39.3318C30.0248 39.0058 30.6044 38.6435 31.1478 38.2088C31.5826 37.8828 31.9809 37.4843 32.3794 37.0859C34.1906 35.1299 35.4584 32.5217 35.7844 29.5151C35.8208 29.5151 35.8569 29.5151 35.8931 29.5151C37.8131 29.5151 39.3344 27.7401 39.3344 25.5667C39.3344 24.2264 38.7548 23.0673 37.8854 22.3428H12.4201Z"/>
<path d="M38.1157 14.7357C36.9928 11.0047 34.0224 7.20117 30.2551 5.24509V13.7577V14.9169C30.2551 14.9893 30.2551 15.0255 30.2551 15.0617C30.2189 15.4602 30.1465 15.8224 29.9655 16.1847C29.4944 17.0903 28.5526 17.7423 27.466 17.7423H26.8864H22.9018C21.8876 17.7423 20.9818 17.199 20.511 16.402C20.2937 16.076 20.185 15.7139 20.1126 15.3153C20.0764 15.1704 20.0764 15.0617 20.0764 14.9169V13.9026V5.20886C16.3091 7.20117 13.3387 11.0047 12.2158 14.7357L11.9622 15.5327H9.89746V20.0606H12.1796H15.3673H16.7075H34.1676H35.4716H40.408V19.8433V15.5327H38.3695L38.1157 14.7357Z"/>
<path d="M22.8886 16.6195H27.4165C28.0686 16.6195 28.6119 16.2572 28.9017 15.7139C29.0466 15.4603 29.1191 15.2067 29.1191 14.9169V14.5909V13.2506V4.70182V3.47021V2.9993C29.1191 2.70951 29.0466 2.45594 28.9742 2.20237C28.6483 1.36922 27.8151 0.753418 26.8733 0.753418H22.8886C22.0192 0.753418 21.2947 1.40545 21.2223 2.2386C21.2223 2.31104 21.186 2.38349 21.186 2.45594V3.47021V4.70182V13.3955V14.772V14.9169C21.186 15.2792 21.2947 15.6052 21.4758 15.895C21.802 16.3297 22.309 16.6195 22.8886 16.6195Z"/>
</svg>
